<?xml version="1.0" encoding="utf-8"?>
<!DOCTYPE svg PUBLIC "-//W3C//DTD SVG 1.0//EN" "http://www.w3.org/TR/2001/REC-SVG-20010904/DTD/svg10.dtd">
<svg version="1.0" xmlns="http://www.w3.org/2000/svg" width="1197px" height="1197px" viewBox="0 0 1197 1197" preserveAspectRatio="xMidYMid meet">
 <rect x="90" y="90" width="1017" height="1017" rx="43" ry="43" fill="white"/>
 <g fill="#000000">
  <path d="M158.25 1167.50 c-0.55 -0.25 -2.75 -0.45 -4.85 -0.45 -2.25 -0.05 -3.90 -0.25 -3.90 -0.55 0 -0.30 -1.35 -0.50 -3 -0.50 -2.25 0 -3.10 -0.20 -3.30 -0.75 -0.20 -0.50 -1 -0.75 -2.20 -0.75 -1.05 0 -2.25 -0.35 -2.70 -0.75 -0.40 -0.40 -1.50 -0.75 -2.50 -0.75 -0.95 0 -1.90 -0.20 -2.05 -0.50 -0.15 -0.25 -0.85 -0.50 -1.50 -0.50 -0.65 0 -1.35 -0.20 -1.50 -0.50 -0.15 -0.25 -0.85 -0.50 -1.45 -0.50 -0.65 0 -1.45 -0.35 -1.80 -0.75 -0.35 -0.40 -1 -0.75 -1.50 -0.75 -0.50 0 -1.15 -0.35 -1.50 -0.75 -0.35 -0.40 -1.15 -0.75 -1.80 -0.75 -0.65 0 -1.20 -0.20 -1.20 -0.50 0 -0.25 -0.45 -0.50 -0.95 -0.50 -0.55 0 -1.15 -0.20 -1.30 -0.50 -0.15 -0.25 -0.75 -0.50 -1.30 -0.50 -0.50 0 -0.95 -0.15 -0.95 -0.40 0 -0.20 -1.05 -0.90 -2.35 -1.55 -1.35 -0.70 -2.80 -1.55 -3.30 -2 -0.85 -0.75 -2.15 -1.50 -4.35 -2.65 -0.65 -0.35 -1.70 -1.10 -2.30 -1.65 -1.65 -1.50 -4.30 -3.45 -5 -3.75 -0.70 -0.30 -8.45 -7.40 -12.65 -11.60 -3.35 -3.40 -8.55 -9.60 -8.55 -10.30 0 -0.25 -0.35 -0.75 -0.75 -1.10 -0.40 -0.30 -1.55 -1.85 -2.60 -3.40 -2.50 -3.75 -2.90 -4.40 -4.40 -7.45 -0.70 -1.40 -1.50 -2.75 -1.75 -2.90 -0.30 -0.15 -0.50 -0.70 -0.50 -1.20 0 -0.50 -0.35 -1.20 -0.75 -1.55 -0.40 -0.35 -0.75 -0.95 -0.75 -1.35 0 -0.40 -0.35 -1.05 -0.75 -1.45 -0.40 -0.45 -0.75 -1.20 -0.75 -1.65 0 -0.50 -0.35 -1.20 -0.75 -1.55 -0.40 -0.35 -0.75 -1.15 -0.75 -1.75 0 -0.60 -0.35 -1.40 -0.75 -1.75 -0.40 -0.35 -0.75 -1.25 -0.75 -2.05 0 -0.75 -0.20 -1.55 -0.50 -1.70 -0.25 -0.15 -0.50 -0.95 -0.50 -1.75 0 -0.80 -0.35 -1.75 -0.75 -2.20 -0.45 -0.45 -0.75 -1.65 -0.75 -3 0 -1.25 -0.20 -2.30 -0.50 -2.30 -0.25 0 -0.50 -1.10 -0.50 -2.45 0 -1.45 -0.30 -2.65 -0.70 -3 -0.40 -0.35 -0.85 -2.20 -1.05 -4.70 -0.65 -6.90 -0.45 -822.80 0.15 -828.85 0.70 -6.80 1.10 -9 1.65 -9 0.25 0 0.45 -1 0.45 -2.20 0 -1.25 0.25 -2.40 0.50 -2.55 0.30 -0.15 0.50 -1.15 0.50 -2.25 0 -1.20 0.25 -2 0.75 -2.20 0.45 -0.15 0.75 -0.90 0.75 -1.75 0 -0.80 0.25 -1.65 0.50 -1.80 0.30 -0.15 0.50 -0.85 0.50 -1.45 0 -0.65 0.35 -1.45 0.75 -1.80 0.40 -0.35 0.75 -1.15 0.75 -1.75 0 -0.60 0.35 -1.40 0.75 -1.75 0.40 -0.35 0.75 -1.15 0.75 -1.80 0 -0.65 0.25 -1.20 0.50 -1.20 0.30 0 0.50 -0.55 0.50 -1.25 0 -0.70 0.35 -1.40 0.75 -1.55 0.40 -0.20 0.75 -0.70 0.75 -1.20 0 -0.50 0.35 -1.15 0.75 -1.50 0.40 -0.35 0.75 -0.80 0.75 -1.05 0 -0.20 0.60 -1.35 1.35 -2.55 2.40 -3.70 2.65 -4.10 3.15 -5.30 0.25 -0.60 0.85 -1.25 1.25 -1.40 0.40 -0.20 0.75 -0.75 0.75 -1.25 0 -0.55 0.35 -1.10 0.75 -1.25 0.40 -0.15 0.85 -0.80 1.05 -1.35 0.30 -1.05 1.10 -2.05 4.50 -5.50 0.90 -0.90 1.75 -2.05 1.90 -2.65 0.30 -1 13.85 -14.25 14.95 -14.65 0.35 -0.10 1.10 -0.65 1.65 -1.25 1.45 -1.45 7.55 -5.80 8.10 -5.80 0.25 0 0.85 -0.45 1.35 -1 0.50 -0.55 1.20 -1 1.50 -1 0.35 0 0.90 -0.35 1.25 -0.75 0.35 -0.40 1 -0.75 1.50 -0.75 0.50 0 1.15 -0.35 1.50 -0.75 0.35 -0.40 1 -0.75 1.50 -0.75 0.50 0 1.15 -0.35 1.50 -0.75 0.35 -0.40 1 -0.75 1.50 -0.75 0.50 0 1 -0.35 1.20 -0.75 0.15 -0.40 0.80 -0.75 1.45 -0.75 0.70 0 1.50 -0.35 1.85 -0.75 0.35 -0.40 0.90 -0.75 1.25 -0.75 0.40 0 1.40 -0.40 2.35 -0.85 3.10 -1.55 3.40 -1.65 4.60 -1.65 0.65 0 1.45 -0.35 1.80 -0.75 0.35 -0.40 1.35 -0.75 2.30 -0.75 0.90 0 1.80 -0.20 1.95 -0.50 0.15 -0.25 1.40 -0.50 2.70 -0.50 1.55 0 2.65 -0.25 3.05 -0.75 0.45 -0.55 1.75 -0.75 5.30 -0.75 3.45 0 4.80 -0.20 5.40 -0.75 0.65 -0.65 6.20 -0.75 43.75 -0.75 l43.05 0 0 -24.20 c0 -20.20 0.10 -24.50 0.75 -26.30 0.40 -1.15 0.75 -3.30 0.75 -4.75 0 -1.75 0.25 -2.85 0.75 -3.25 0.40 -0.35 0.75 -1.45 0.75 -2.50 0 -1.05 0.35 -2.15 0.75 -2.50 0.40 -0.35 0.75 -1.15 0.75 -1.85 0 -0.65 0.35 -1.55 0.75 -1.95 0.40 -0.45 0.75 -1.20 0.75 -1.65 0 -0.50 0.35 -1.20 0.75 -1.55 0.40 -0.35 0.75 -1.15 0.75 -1.85 0 -0.65 0.35 -1.30 0.75 -1.45 0.40 -0.20 0.75 -0.60 0.75 -0.95 0 -1.05 2.50 -5.75 3.05 -5.75 0.30 0 0.75 -0.70 1.05 -1.50 0.25 -0.85 0.90 -1.75 1.45 -2 0.50 -0.30 1.25 -1.25 1.70 -2.15 1 -2.10 10.40 -11.85 11.40 -11.85 0.45 0 1 -0.35 1.25 -0.80 0.25 -0.40 0.90 -1.05 1.45 -1.35 0.60 -0.35 2.10 -1.35 3.40 -2.20 1.25 -0.90 2.50 -1.65 2.75 -1.65 0.25 0 0.75 -0.30 1.10 -0.60 1 -0.90 3.85 -2.40 4.65 -2.40 0.35 0 0.90 -0.35 1.25 -0.75 0.35 -0.40 1.15 -0.75 1.80 -0.75 0.60 0 1.30 -0.20 1.45 -0.50 0.15 -0.25 0.85 -0.50 1.45 -0.50 0.65 0 1.45 -0.35 1.80 -0.75 0.35 -0.45 1.45 -0.75 2.55 -0.75 1.05 0 2.05 -0.20 2.20 -0.50 0.15 -0.25 1.25 -0.50 2.45 -0.50 1.20 0 3.25 -0.35 4.60 -0.75 2.90 -0.85 15 -1 18.95 -0.15 1.40 0.25 3.95 0.60 5.75 0.75 1.80 0.15 3.50 0.40 3.75 0.65 0.30 0.20 1.45 0.55 2.60 0.75 1.20 0.20 2.25 0.55 2.45 0.80 0.15 0.25 0.75 0.45 1.40 0.45 0.60 0 1.55 0.35 2.10 0.75 0.50 0.40 1.30 0.75 1.75 0.75 0.45 0 1.10 0.35 1.45 0.75 0.35 0.40 1.15 0.75 1.85 0.75 0.65 0 1.30 0.35 1.45 0.75 0.20 0.40 0.60 0.75 0.95 0.75 0.30 0 1 0.45 1.50 1 0.50 0.55 1.35 1 1.85 1 0.50 0 1.05 0.35 1.20 0.75 0.20 0.40 0.50 0.75 0.75 0.75 0.70 0 3.55 2.10 4.35 3.15 0.35 0.45 0.95 0.85 1.30 0.85 0.35 0 1.75 1.20 3.05 2.65 1.35 1.40 3.75 4 5.35 5.65 1.60 1.70 2.90 3.40 2.90 3.80 0 0.40 0.55 1.25 1.25 1.90 0.70 0.65 1.25 1.40 1.25 1.70 0 0.25 0.50 1 1.05 1.60 1.20 1.25 2 2.55 3.20 5.10 0.40 0.85 1 1.60 1.25 1.60 0.30 0 0.50 0.65 0.50 1.45 0 0.80 0.30 1.55 0.75 1.75 0.40 0.15 0.75 0.80 0.75 1.45 0 0.70 0.35 1.50 0.75 1.85 0.40 0.35 0.75 1.25 0.75 2 0 0.75 0.35 1.65 0.75 2 0.45 0.35 0.75 1.45 0.75 2.55 0 1.10 0.25 1.95 0.50 1.95 0.30 0 0.50 1.45 0.50 3.40 0 2.05 0.25 3.65 0.65 4 0.45 0.50 0.65 6.55 0.75 25.85 l0.15 25.25 66.10 0.10 c36.35 0.10 134.20 0.10 217.45 0 l151.40 -0.10 0.20 -25.90 c0.20 -25.95 0.55 -33.10 1.70 -33.50 0.30 -0.10 0.60 -0.90 0.60 -1.80 0 -0.90 0.35 -2.05 0.75 -2.60 0.40 -0.50 0.75 -1.45 0.75 -2.10 0 -0.65 0.35 -1.50 0.75 -1.90 0.40 -0.45 0.75 -1.20 0.75 -1.75 0 -0.55 0.35 -1.35 0.75 -1.75 0.40 -0.45 0.75 -1.20 0.75 -1.65 0 -0.50 0.35 -1.20 0.75 -1.55 0.40 -0.35 0.75 -1.15 0.75 -1.75 0 -0.65 0.35 -1.25 0.75 -1.45 0.40 -0.15 0.75 -0.70 0.75 -1.25 0 -0.55 0.40 -1.25 0.95 -1.50 0.50 -0.30 1.10 -1.10 1.25 -1.80 0.20 -0.70 0.55 -1.25 0.80 -1.25 0.25 0 1.10 -0.95 1.80 -2.15 1.65 -2.55 10.65 -11.85 11.55 -11.85 0.35 0 1 -0.55 1.45 -1.25 0.45 -0.70 1 -1.25 1.20 -1.25 0.45 0 5.60 -3.40 6 -3.95 0.15 -0.15 0.80 -0.60 1.50 -0.95 0.70 -0.30 1.60 -0.80 2 -1.05 0.40 -0.25 1.65 -0.85 2.75 -1.30 1.10 -0.50 2.60 -1.20 3.35 -1.60 0.70 -0.35 1.75 -0.65 2.30 -0.65 0.60 0 1.20 -0.20 1.35 -0.50 0.15 -0.25 1.05 -0.50 1.95 -0.50 0.90 0 2.05 -0.35 2.60 -0.75 0.55 -0.45 2.15 -0.75 3.95 -0.75 1.65 0 3.55 -0.35 4.25 -0.75 1.80 -1.05 16.40 -1.05 19.80 0 1.35 0.40 3.60 0.75 5.05 0.75 1.40 0 2.75 0.25 2.90 0.50 0.15 0.30 1.05 0.50 1.95 0.50 0.90 0 2.05 0.35 2.60 0.75 0.50 0.40 1.40 0.75 2 0.75 0.55 0 1.45 0.35 2 0.75 0.50 0.40 1.35 0.75 1.80 0.75 0.45 0 1.15 0.30 1.50 0.65 0.35 0.40 1.30 0.85 2.05 1.05 0.75 0.15 1.35 0.55 1.35 0.80 0 0.30 0.45 0.50 1 0.50 0.55 0 1.25 0.45 1.60 1 0.35 0.55 0.90 1 1.25 1 2.15 0 19.10 15.55 19.15 17.55 0 0.45 0.55 1.10 1.25 1.45 0.70 0.35 1.25 0.95 1.25 1.35 0 0.35 0.45 1.10 1 1.65 0.55 0.55 1 1.30 1 1.65 0 0.40 0.45 1.10 1 1.60 0.55 0.50 1 1.30 1 1.75 0 0.50 0.35 1.15 0.75 1.50 0.40 0.35 0.75 1 0.75 1.50 0 0.50 0.35 1.15 0.75 1.50 0.40 0.35 0.75 1.25 0.75 2 0 0.80 0.35 1.50 0.75 1.70 0.45 0.15 0.75 0.90 0.75 1.70 0 0.80 0.35 1.75 0.75 2.10 0.40 0.35 0.75 1.45 0.75 2.50 0 1.20 0.25 2 0.75 2.20 0.55 0.20 0.75 1.10 0.75 3.70 0 2.05 0.25 3.65 0.65 4 0.45 0.50 0.65 6.60 0.75 26.10 l0.15 25.50 21.85 0 c12 0.05 31.20 0 42.65 0 17.75 -0.05 20.95 0.05 22.25 0.75 0.95 0.50 2.85 0.75 5.80 0.75 2.40 0 4.50 0.20 4.65 0.50 0.15 0.25 1 0.50 1.80 0.50 0.80 0 2.30 0.35 3.30 0.75 0.95 0.40 2.40 0.75 3.15 0.75 0.75 0 1.65 0.35 2 0.75 0.35 0.40 1.25 0.75 2.05 0.75 0.75 0 1.55 0.20 1.70 0.50 0.15 0.25 0.85 0.50 1.45 0.50 0.65 0 1.45 0.35 1.80 0.75 0.35 0.40 1.15 0.75 1.80 0.75 0.65 0 1.20 0.25 1.20 0.50 0 0.30 0.40 0.50 0.90 0.50 0.50 0 1.35 0.35 1.90 0.75 0.50 0.40 1.35 0.75 1.85 0.75 0.50 0 1 0.35 1.15 0.75 0.20 0.40 0.70 0.75 1.20 0.75 0.50 0 1.15 0.35 1.50 0.75 0.35 0.40 0.80 0.75 1.05 0.75 0.25 0 2.60 1.45 5.20 3.25 2.65 1.80 4.95 3.25 5.10 3.25 0.15 0 1.50 1 2.95 2.25 1.40 1.25 2.80 2.25 3.05 2.25 0.25 0 3.75 3.45 7.80 7.60 10.05 10.40 10.35 10.75 10.35 11.25 0 0.25 0.70 1.10 1.50 1.90 0.85 0.80 1.50 1.75 1.50 2.10 0 0.35 0.45 0.90 1 1.25 0.55 0.35 1 1.05 1 1.50 0 0.50 0.45 1.10 1 1.40 0.55 0.30 1 0.95 1 1.45 0 0.50 0.35 1.20 0.75 1.55 0.45 0.35 1.25 1.65 1.75 2.80 0.55 1.20 1.20 2.30 1.50 2.45 0.25 0.15 0.50 0.70 0.50 1.25 0 0.50 0.35 1 0.75 1.20 0.40 0.15 0.75 0.80 0.75 1.50 0 0.65 0.35 1.30 0.75 1.50 0.40 0.15 0.75 0.80 0.75 1.50 0 0.65 0.35 1.30 0.75 1.50 0.40 0.15 0.75 0.80 0.75 1.50 0 0.70 0.25 1.40 0.50 1.55 0.25 0.15 0.50 0.75 0.50 1.25 0 0.55 0.45 1.75 1 2.75 0.55 1 1 2.20 1 2.75 0 0.50 0.25 1.10 0.50 1.25 0.30 0.15 0.50 1.10 0.50 2.05 0 1 0.35 2.10 0.75 2.50 0.40 0.45 0.75 1.55 0.75 2.45 0 0.95 0.25 1.85 0.50 2 0.25 0.15 0.50 1.65 0.50 3.25 0 1.60 0.20 3.05 0.45 3.20 0.25 0.15 0.60 4.15 0.80 8.90 0.45 11 0.40 814.90 -0.05 821.65 -0.20 2.75 -0.65 5.60 -1 6.35 -0.40 0.75 -0.70 2.35 -0.70 3.65 0 1.25 -0.20 2.25 -0.50 2.25 -0.25 0 -0.50 0.95 -0.50 2.15 0 1.15 -0.35 2.55 -0.75 3.05 -0.40 0.55 -0.75 1.60 -0.75 2.35 0 0.75 -0.20 1.55 -0.50 1.70 -0.25 0.15 -0.50 0.85 -0.50 1.50 0 0.65 -0.35 1.50 -0.75 1.95 -0.40 0.40 -0.75 1.15 -0.75 1.70 0 0.55 -0.35 1.25 -0.75 1.60 -0.40 0.35 -0.75 1.15 -0.75 1.80 0 0.60 -0.35 1.45 -0.75 1.90 -0.40 0.40 -0.75 1.20 -0.75 1.80 0 0.55 -0.35 1.15 -0.75 1.30 -0.40 0.20 -0.75 0.80 -0.75 1.45 0 0.65 -0.35 1.25 -0.75 1.45 -0.40 0.15 -0.75 0.70 -0.75 1.25 0 0.55 -0.20 1.10 -0.45 1.25 -0.40 0.25 -1.30 1.85 -3.40 5.90 -0.35 0.70 -1 1.45 -1.40 1.60 -0.40 0.15 -0.75 0.60 -0.75 0.95 0 0.40 -0.45 1.10 -1 1.60 -0.55 0.50 -1 1.15 -1 1.50 0 0.30 -0.65 1.20 -1.50 2 -0.80 0.80 -1.50 1.70 -1.50 2.05 0 0.30 -0.35 0.70 -0.75 0.85 -0.40 0.20 -1.25 1.15 -1.95 2.20 -0.65 1.05 -2.30 2.95 -3.65 4.25 -1.30 1.30 -4.35 4.25 -6.75 6.60 -2.40 2.35 -4.55 4.30 -4.70 4.30 -0.20 0 -1.10 0.70 -2.05 1.50 -0.90 0.85 -1.95 1.50 -2.25 1.50 -0.30 0 -0.90 0.40 -1.35 0.90 -0.45 0.45 -1.35 1.15 -2.05 1.50 -2.20 1.15 -3.30 1.85 -4.20 2.75 -0.50 0.45 -1.20 0.85 -1.60 0.85 -0.40 0 -0.70 0.20 -0.70 0.40 0 0.25 -1.25 0.95 -2.75 1.65 -1.50 0.65 -2.75 1.35 -2.75 1.60 0 0.20 -0.35 0.35 -0.75 0.35 -0.40 0 -1.20 0.25 -1.75 0.50 -0.55 0.30 -1.45 0.75 -2 1 -0.55 0.30 -1.45 0.50 -2 0.50 -0.55 0 -1.40 0.45 -1.85 1 -0.50 0.55 -1.35 1 -2 1 -0.60 0 -1.25 0.25 -1.40 0.50 -0.15 0.30 -0.95 0.50 -1.75 0.50 -0.75 0 -1.50 0.35 -1.70 0.75 -0.15 0.50 -0.95 0.75 -2.25 0.75 -1.10 0 -2.10 0.20 -2.25 0.45 -0.15 0.25 -1.30 0.60 -2.55 0.75 -1.20 0.20 -2.35 0.55 -2.50 0.85 -0.20 0.25 -1.65 0.45 -3.25 0.45 -1.60 0 -3.10 0.25 -3.25 0.50 -0.15 0.30 -2.40 0.50 -5 0.50 -2.60 0 -4.85 0.20 -5 0.50 -0.40 0.65 -887.55 0.65 -889 0z m887.45 -49.40 c2.15 -0.30 4.15 -0.75 4.45 -1.05 0.30 -0.30 1.40 -0.55 2.40 -0.55 1 0 2.10 -0.35 2.45 -0.75 0.35 -0.40 1.25 -0.75 2.05 -0.75 0.75 0 1.55 -0.20 1.70 -0.50 0.15 -0.25 0.85 -0.50 1.55 -0.50 0.70 0 1.35 -0.35 1.50 -0.75 0.20 -0.40 0.80 -0.75 1.45 -0.75 0.65 0 1.25 -0.35 1.45 -0.75 0.15 -0.40 0.85 -0.75 1.55 -0.75 0.70 0 1.25 -0.20 1.25 -0.50 0 -0.25 0.80 -0.80 1.75 -1.25 0.95 -0.45 1.95 -1.15 2.30 -1.55 0.30 -0.40 0.85 -0.70 1.15 -0.70 0.30 0 0.95 -0.45 1.45 -1 0.45 -0.55 1.15 -1 1.50 -1 0.90 0 10.85 -9.70 10.85 -10.60 0 -0.40 0.55 -1.25 1.25 -1.90 0.70 -0.65 1.25 -1.50 1.25 -1.85 0 -0.40 0.30 -0.80 0.70 -0.95 0.40 -0.15 0.85 -0.80 1 -1.50 0.20 -0.65 0.55 -1.20 0.80 -1.20 0.30 0 0.50 -0.45 0.50 -1 0 -0.55 0.45 -1.40 1 -1.85 0.55 -0.50 1 -1.25 1 -1.75 0 -0.45 0.25 -1 0.50 -1.15 0.30 -0.15 0.50 -0.75 0.50 -1.25 0 -0.50 0.35 -1.25 0.75 -1.70 0.40 -0.40 0.75 -1.15 0.75 -1.65 0 -0.50 0.35 -1.55 0.75 -2.35 0.40 -0.75 0.75 -2.15 0.75 -3 0 -0.90 0.20 -1.80 0.45 -2.10 0.25 -0.25 0.60 -1.90 0.85 -3.70 0.50 -4.35 0.50 -811.70 -0.05 -816.65 -0.20 -2.10 -0.60 -4 -0.80 -4.15 -0.25 -0.15 -0.45 -1.05 -0.45 -2 0 -1 -0.35 -2.10 -0.75 -2.50 -0.40 -0.45 -0.75 -1.40 -0.75 -2.15 0 -0.80 -0.35 -1.70 -0.75 -2.05 -0.40 -0.35 -0.75 -1.15 -0.75 -1.75 0 -0.60 -0.35 -1.40 -0.75 -1.75 -0.40 -0.35 -0.75 -1 -0.75 -1.50 0 -0.50 -0.35 -1.15 -0.75 -1.50 -0.40 -0.35 -0.75 -1 -0.75 -1.50 0 -0.45 -0.45 -1.25 -1 -1.75 -0.55 -0.50 -1 -1.10 -1 -1.35 0 -0.25 -1 -1.80 -2.25 -3.40 -1.25 -1.60 -2.25 -3.10 -2.25 -3.35 0 -0.55 -9.10 -9.35 -11.40 -11 -0.80 -0.65 -1.75 -1.15 -2.05 -1.15 -0.30 0 -0.55 -0.20 -0.55 -0.45 0 -0.25 -0.65 -0.70 -1.50 -1 -0.80 -0.25 -1.50 -0.75 -1.50 -1 0 -0.30 -0.45 -0.55 -0.95 -0.55 -0.55 0 -1.30 -0.35 -1.75 -0.75 -0.40 -0.40 -1.15 -0.75 -1.70 -0.75 -0.55 0 -1.10 -0.35 -1.30 -0.75 -0.15 -0.40 -0.75 -0.75 -1.30 -0.75 -1 0 -1.30 -0.10 -4.40 -1.65 -0.95 -0.45 -2.20 -0.85 -2.80 -0.85 -0.60 0 -1.30 -0.20 -1.55 -0.45 -1.60 -1.45 -9 -1.75 -48.30 -1.90 l-39.85 -0.15 -0.35 3.35 c-0.15 1.90 -0.25 8.90 -0.15 15.60 0.10 9.45 0 12.25 -0.45 12.40 -0.45 0.15 -0.65 1.35 -0.65 3.65 0 1.90 -0.20 3.60 -0.50 3.75 -0.25 0.15 -0.50 1.05 -0.50 2 0 0.90 -0.35 2 -0.75 2.45 -0.40 0.40 -0.75 1.10 -0.75 1.50 0 0.45 -0.20 1.20 -0.45 1.70 -0.25 0.45 -1.20 2.45 -2.10 4.35 -0.85 1.95 -1.90 3.70 -2.25 3.90 -0.40 0.20 -0.70 0.80 -0.70 1.25 0 0.50 -0.25 1.15 -0.55 1.45 -0.65 0.65 -1.65 2.30 -2.40 4 -0.30 0.60 -0.95 1.35 -1.55 1.65 -0.55 0.30 -1 1 -1 1.55 0 0.90 -10.45 11.95 -11.35 11.95 -0.15 0 -0.65 0.35 -1.10 0.75 -2.20 2.10 -6.60 5.25 -7.25 5.25 -0.45 0 -0.80 0.20 -0.80 0.50 0 0.25 -0.55 0.60 -1.25 0.80 -0.65 0.15 -1.45 0.60 -1.80 1 -0.30 0.40 -0.95 0.70 -1.45 0.70 -0.50 0 -1.15 0.35 -1.50 0.75 -0.35 0.40 -1.15 0.75 -1.75 0.75 -0.60 0 -1.40 0.35 -1.75 0.75 -0.35 0.40 -1.25 0.75 -2 0.75 -0.75 0 -1.65 0.35 -2 0.75 -0.35 0.40 -1.45 0.75 -2.45 0.75 -1 0 -2.05 0.20 -2.30 0.45 -0.80 0.70 -7.70 1.15 -18.25 1.20 -11 0 -16.05 -0.40 -18.35 -1.45 -0.85 -0.40 -2.10 -0.70 -2.80 -0.70 -0.70 0 -1.45 -0.20 -1.60 -0.50 -0.15 -0.25 -0.85 -0.50 -1.45 -0.50 -0.65 0 -1.45 -0.35 -1.80 -0.75 -0.35 -0.40 -1.15 -0.75 -1.75 -0.75 -0.60 0 -1.40 -0.35 -1.75 -0.75 -0.35 -0.40 -0.90 -0.75 -1.25 -0.75 -0.35 0 -0.90 -0.35 -1.25 -0.75 -0.35 -0.40 -0.95 -0.75 -1.35 -0.75 -0.40 0 -1.45 -0.55 -2.35 -1.25 -0.90 -0.70 -1.85 -1.25 -2.15 -1.25 -0.25 0 -1 -0.55 -1.65 -1.25 -0.65 -0.70 -1.40 -1.25 -1.65 -1.25 -1.50 0 -14.85 -13.05 -14.85 -14.50 0 -0.55 -0.45 -1.25 -1 -1.60 -0.55 -0.35 -1 -0.85 -1 -1.05 0 -0.25 -0.55 -1.10 -1.25 -1.95 -0.70 -0.80 -1.25 -1.75 -1.25 -2.15 0 -0.35 -0.35 -0.90 -0.75 -1.25 -0.40 -0.35 -0.75 -1 -0.75 -1.50 0 -0.50 -0.35 -1 -0.75 -1.20 -0.40 -0.15 -0.75 -0.55 -0.75 -0.90 0 -0.35 -0.70 -2 -1.50 -3.65 -0.80 -1.65 -1.50 -3.50 -1.50 -4.05 0 -0.60 -0.35 -1.35 -0.75 -1.70 -0.45 -0.35 -0.75 -1.45 -0.75 -2.50 0 -1.05 -0.25 -2 -0.60 -2.10 -1.05 -0.35 -1.50 -6.75 -1.70 -23.25 l-0.25 -15.65 -217.45 0 -217.50 0 0 14.90 c-0.05 11.95 -0.20 15.10 -0.75 16.10 -0.40 0.75 -0.70 2.65 -0.75 4.60 0 1.90 -0.25 3.40 -0.55 3.50 -0.25 0.10 -0.65 1.10 -0.80 2.30 -0.15 1.15 -0.50 2.10 -0.70 2.10 -0.25 0 -0.45 0.70 -0.45 1.50 0 0.90 -0.30 1.65 -0.75 1.80 -0.40 0.20 -0.75 0.75 -0.75 1.25 0 0.50 -0.45 1.65 -1 2.55 -0.55 0.90 -1 2.05 -1 2.55 0 0.45 -0.20 0.85 -0.50 0.85 -0.25 0 -0.50 0.40 -0.50 0.95 0 0.50 -0.45 1.50 -1 2.20 -0.55 0.70 -1 1.55 -1 1.95 0 0.35 -0.45 1 -1 1.40 -0.55 0.40 -1 1 -1 1.35 0 0.35 -0.45 0.85 -1 1.15 -0.55 0.30 -1 0.85 -1 1.30 0 0.80 -11.35 12.70 -12.10 12.70 -0.50 0 -1.40 0.65 -5.45 3.90 -1.15 0.85 -2.35 1.60 -2.70 1.60 -0.35 0 -0.75 0.35 -0.95 0.75 -0.15 0.40 -0.70 0.75 -1.25 0.75 -0.55 0 -1.10 0.20 -1.30 0.45 -0.15 0.25 -0.90 0.60 -1.70 0.80 -0.80 0.15 -1.60 0.65 -1.75 1.05 -0.15 0.40 -0.80 0.70 -1.50 0.70 -0.70 0 -1.40 0.20 -1.55 0.50 -0.15 0.25 -0.95 0.50 -1.70 0.50 -0.80 0 -1.70 0.35 -2.05 0.75 -0.35 0.40 -1.45 0.75 -2.45 0.75 -1 0 -2.10 0.25 -2.40 0.55 -1 1 -8.45 1.60 -18.65 1.60 -11.40 -0.05 -17.35 -0.50 -18.75 -1.45 -0.55 -0.40 -1.70 -0.70 -2.60 -0.70 -0.85 0 -1.75 -0.20 -1.90 -0.50 -0.15 -0.30 -0.85 -0.50 -1.50 -0.50 -0.65 0 -1.50 -0.35 -1.95 -0.75 -0.40 -0.40 -1.15 -0.75 -1.65 -0.75 -0.50 0 -1.35 -0.35 -1.85 -0.75 -0.55 -0.40 -1.40 -0.75 -1.90 -0.75 -0.50 0 -0.90 -0.20 -0.90 -0.40 0 -0.25 -0.95 -0.85 -2.10 -1.35 -2.40 -1.05 -6.45 -3.75 -8.45 -5.55 -0.70 -0.65 -1.50 -1.20 -1.75 -1.20 -0.75 0 -11.70 -11.40 -11.70 -12.20 0 -0.35 -1 -1.75 -2.25 -3.10 -1.25 -1.35 -2.25 -2.75 -2.25 -3.10 0 -0.40 -0.45 -1.25 -1 -1.95 -0.55 -0.70 -1 -1.55 -1 -1.90 0 -0.35 -0.35 -0.90 -0.75 -1.25 -0.40 -0.35 -0.75 -1 -0.75 -1.50 0 -0.50 -0.35 -1.15 -0.75 -1.50 -0.40 -0.35 -0.75 -1.15 -0.75 -1.75 0 -0.60 -0.35 -1.40 -0.75 -1.75 -0.40 -0.35 -0.75 -1.25 -0.75 -2.05 0 -0.75 -0.20 -1.55 -0.50 -1.70 -0.25 -0.15 -0.50 -1.20 -0.50 -2.25 0 -1.15 -0.30 -2.10 -0.70 -2.35 -1.30 -0.75 -1.95 -7.60 -2.15 -23.30 l-0.20 -15.35 -39.85 0.20 c-41.40 0.20 -46.65 0.40 -47.65 1.60 -0.30 0.40 -1.30 0.70 -2.20 0.70 -0.90 0 -1.90 0.35 -2.25 0.75 -0.35 0.40 -1.15 0.75 -1.80 0.75 -0.60 0 -1.30 0.25 -1.45 0.50 -0.15 0.30 -0.85 0.50 -1.50 0.50 -0.65 0 -1.35 0.25 -1.50 0.50 -0.15 0.30 -0.85 0.50 -1.55 0.50 -0.65 0 -1.20 0.20 -1.20 0.50 0 0.25 -0.55 0.60 -1.25 0.80 -0.70 0.15 -1.25 0.50 -1.25 0.70 0 0.40 -3 2.40 -4.65 3.10 -0.45 0.20 -0.85 0.60 -0.85 0.90 0 0.25 -0.35 0.50 -0.75 0.50 -0.40 0 -1.35 0.60 -2.15 1.35 -0.80 0.80 -3.15 3.05 -5.25 5.05 -2.15 2 -3.85 3.85 -3.85 4.15 0 0.30 -0.90 1.60 -2 2.90 -1.10 1.30 -2 2.65 -2 2.95 0 0.35 -0.45 0.85 -1 1.20 -0.55 0.35 -1 1.05 -1 1.55 0 0.50 -0.35 1 -0.75 1.15 -0.40 0.20 -0.75 0.85 -0.75 1.50 0 0.65 -0.20 1.20 -0.50 1.20 -0.25 0 -0.50 0.55 -0.50 1.20 0 0.65 -0.35 1.45 -0.75 1.80 -0.40 0.35 -0.75 1 -0.75 1.50 0 0.50 -0.35 1.15 -0.75 1.50 -0.40 0.35 -0.75 1.25 -0.75 2 0 0.75 -0.35 1.65 -0.75 2 -0.45 0.35 -0.75 1.45 -0.75 2.55 0 1.10 -0.20 1.95 -0.45 1.95 -0.25 0 -0.60 1.75 -0.80 3.90 -0.60 6.50 -0.80 813.75 -0.25 814.30 0.25 0.25 0.50 1.80 0.50 3.35 0 1.90 0.25 3.05 0.75 3.45 0.40 0.35 0.75 1.30 0.75 2.10 0 0.80 0.35 1.80 0.75 2.20 0.40 0.45 0.75 1.30 0.75 1.95 0 0.65 0.25 1.35 0.50 1.50 0.30 0.15 0.50 0.80 0.50 1.45 0 0.65 0.45 1.55 1 2.05 0.55 0.50 1 1.30 1 1.85 0 0.50 0.25 0.90 0.50 0.90 0.30 0 0.50 0.55 0.50 1.25 0 0.70 0.25 1.25 0.55 1.25 0.25 0 0.85 0.80 1.25 1.75 0.40 0.95 0.95 1.75 1.20 1.75 0.30 0 0.50 0.30 0.50 0.65 0 0.40 0.50 1.30 1.15 2.10 2.30 2.90 11.65 12.35 12.60 12.80 0.55 0.25 2 1.25 3.25 2.15 1.25 0.95 2.50 1.75 2.80 1.75 0.30 0.05 0.85 0.40 1.20 0.80 0.35 0.40 1 0.75 1.50 0.75 0.50 0 1.15 0.35 1.50 0.75 0.35 0.40 1.05 0.75 1.55 0.75 0.55 0 0.95 0.25 0.95 0.50 0 0.30 0.40 0.50 0.90 0.50 0.50 0 1.35 0.35 1.90 0.75 0.50 0.40 1.55 0.75 2.25 0.75 0.75 0 1.60 0.35 1.95 0.75 0.35 0.40 1.35 0.75 2.20 0.75 0.90 0 1.80 0.20 2.10 0.45 0.25 0.25 2.60 0.70 5.20 1 2.60 0.35 4.80 0.70 4.95 0.85 0.10 0.10 197.10 0.10 437.75 0.05 312.85 -0.15 438.65 -0.35 441.50 -0.75z m-728 -882.35 c0.55 -0.40 1.65 -0.75 2.40 -0.75 0.80 0 1.55 -0.35 1.70 -0.75 0.20 -0.40 0.70 -0.75 1.20 -0.75 1.15 0 7.50 -6.05 7.50 -7.10 0 -0.45 0.35 -1.05 0.75 -1.40 0.40 -0.35 0.75 -1.05 0.75 -1.55 0 -0.50 0.20 -1 0.45 -1.15 0.25 -0.15 0.55 -1.15 0.70 -2.15 0.15 -1.05 0.50 -2.90 0.80 -4.15 0.40 -1.60 0.55 -18 0.45 -56.50 -0.15 -54.90 -0.25 -57.80 -1.95 -61.10 -0.25 -0.50 -0.45 -1.30 -0.45 -1.85 0 -0.50 -0.35 -1.20 -0.75 -1.55 -0.40 -0.35 -0.75 -0.90 -0.75 -1.25 0 -0.30 -0.45 -1 -1 -1.50 -0.55 -0.50 -1 -1.15 -1 -1.45 -0.05 -0.65 -5.10 -4.80 -5.85 -4.80 -0.30 0 -0.80 -0.35 -1.15 -0.75 -0.35 -0.40 -1.25 -0.75 -2.05 -0.75 -0.75 0 -1.55 -0.20 -1.70 -0.50 -0.40 -0.65 -5.60 -0.65 -6 0 -0.15 0.30 -0.85 0.50 -1.45 0.50 -0.65 0 -1.45 0.35 -1.80 0.75 -0.35 0.40 -0.85 0.75 -1.10 0.75 -0.65 0 -3.55 2.10 -4.30 3.15 -0.35 0.45 -1 0.85 -1.40 0.85 -0.40 0 -0.70 0.45 -0.70 1 0 0.55 -0.20 1 -0.50 1 -0.25 0 -0.60 0.55 -0.80 1.25 -0.15 0.65 -0.60 1.45 -1 1.80 -0.40 0.30 -0.70 1.05 -0.70 1.70 0 0.60 -0.15 1.25 -0.35 1.45 -0.25 0.20 -0.70 1.75 -1.10 3.45 -0.55 2.50 -0.75 13.45 -0.90 58.20 -0.15 48.85 -0.10 55.30 0.60 56.90 0.40 1.05 0.75 2.75 0.75 3.80 0 1.10 0.25 1.95 0.50 1.95 0.30 0 0.50 0.55 0.50 1.25 0 0.70 0.35 1.40 0.75 1.55 0.40 0.20 0.75 0.70 0.75 1.15 0 1.30 4.80 5.90 7.90 7.60 1.50 0.80 3.40 1.45 4.35 1.45 0.95 0 1.75 0.25 1.75 0.50 0 0.75 3.10 0.55 4.20 -0.25z m577.60 0 c0.50 -0.40 1.55 -0.75 2.25 -0.75 0.75 0 1.60 -0.35 1.95 -0.75 0.35 -0.40 0.80 -0.75 1.05 -0.75 1.35 0 7.45 -5.65 7.45 -6.85 0 -0.30 0.35 -0.80 0.75 -1.15 0.40 -0.35 0.75 -1 0.75 -1.50 0 -0.50 0.35 -1.15 0.75 -1.50 0.50 -0.40 0.75 -1.50 0.75 -3.05 0 -1.35 0.25 -2.45 0.50 -2.45 0.35 0 0.50 -19.25 0.50 -56.70 0 -37.30 -0.15 -56.85 -0.50 -57.05 -0.25 -0.15 -0.50 -1.30 -0.50 -2.50 0 -2 -1.25 -5.25 -2.10 -5.65 -0.25 -0.10 -0.40 -0.60 -0.40 -1.10 0 -0.45 -0.35 -1.15 -0.75 -1.50 -0.40 -0.35 -0.75 -0.90 -0.75 -1.20 0 -1.15 -5.80 -5.80 -7.25 -5.80 -0.40 0 -0.75 -0.20 -0.75 -0.45 0 -0.25 -0.75 -0.55 -1.60 -0.70 -0.90 -0.15 -2.60 -0.55 -3.75 -0.90 -1.85 -0.55 -2.20 -0.55 -3.05 0.20 -0.50 0.45 -1.55 0.85 -2.25 0.85 -0.75 0 -1.35 0.20 -1.35 0.50 0 0.25 -0.60 0.65 -1.35 0.80 -0.75 0.20 -1.70 0.60 -2.10 0.90 -1.65 1.25 -5.55 5.55 -5.55 6.15 0 0.35 -0.20 1.05 -0.45 1.55 -1.45 2.60 -2.05 4.45 -2.05 6.10 0 1 -0.25 2.05 -0.50 2.30 -0.70 0.70 -0.75 113 -0.05 114.90 0.30 0.75 0.55 1.95 0.55 2.65 0 0.70 0.30 1.85 0.70 2.55 0.35 0.75 1.10 2.15 1.60 3.15 1.20 2.55 5.95 7.45 7.15 7.45 0.20 0 0.80 0.45 1.30 1 0.50 0.55 1.50 1 2.20 1 0.70 0 1.65 0.25 2.05 0.50 1.10 0.70 3.70 0.60 4.80 -0.25z"/>
  <path d="M439.25 1059.05 c-5.70 -2.60 -9.20 -10.80 -9.25 -21.60 0 -10.85 1.40 -21.35 6.55 -49.45 0.85 -4.60 4.55 -21.45 5.75 -26.25 0.70 -2.75 1.80 -7.35 2.45 -10.25 1.25 -5.75 9.65 -39.15 11.25 -44.75 1 -3.50 4.15 -15.25 8.30 -30.75 2.10 -7.95 2.85 -10.80 7.95 -29.25 1.30 -4.65 3.10 -11.40 4.05 -15 2.25 -8.50 5.95 -21.90 7.55 -27.25 1.60 -5.40 4.70 -16.45 6.85 -24.50 2 -7.30 4 -14.25 8.85 -30.50 1.95 -6.45 4.30 -14.45 5.30 -17.75 8.25 -27.95 25 -80.15 28.80 -89.75 0.70 -1.80 2.15 -5.85 3.25 -9 3.20 -9.15 13.25 -37.10 16 -44.50 2.60 -6.90 7.60 -20.40 12.40 -33.75 5.20 -14.25 8.25 -21.65 9.85 -23.85 1.45 -1.95 1.60 -2.50 1.65 -5.90 0 -4.05 0.50 -5.40 7.20 -21 10.20 -23.65 33.05 -71.05 42.65 -88.40 l2.30 -4.15 -0.95 -2.60 c-0.55 -1.45 -1.20 -3.65 -1.45 -4.85 -0.25 -1.25 -0.95 -4.60 -1.55 -7.50 -1.40 -6.80 -1.60 -21.50 -0.30 -29.35 1.05 -6.55 4.15 -16.10 7.05 -21.45 6.05 -11.30 9.90 -15.80 28.10 -33.15 18.10 -17.25 25.85 -26.95 32.45 -40.80 3.45 -7.25 5.75 -14.10 7.45 -21.75 2.25 -10.50 2.45 -10.95 6.15 -12.55 3.05 -1.30 6.55 -1.25 8.60 0.20 3.75 2.50 18.90 34.15 24.50 51.10 3.85 11.65 6.65 22.35 8 30.50 3.65 21.55 2.15 45.25 -4.10 64.25 -2.75 8.45 -4.40 12.15 -9.05 20.25 -7.65 13.40 -19.90 25.75 -31.45 31.75 l-3.85 2 -1.25 4.10 c-0.65 2.30 -2.25 8 -3.50 12.65 -1.30 4.70 -2.75 10.10 -3.35 12 -0.55 1.95 -1.20 4.40 -1.50 5.50 -0.25 1.10 -1 3.80 -1.65 6 -0.65 2.20 -1.70 5.90 -2.30 8.25 -2.65 10 -9.75 34.55 -12.50 43.25 -0.90 2.75 -2.25 7.25 -3 10 -2.20 7.75 -5.25 15.60 -6.80 17.55 -2.60 3.25 -3.20 4.45 -3.20 6.45 0 1.10 -0.35 3.35 -0.75 5 -0.75 3.30 -10.70 33.55 -13.25 40.25 -0.85 2.35 -2.10 5.70 -2.75 7.50 -0.65 1.80 -3.30 9.10 -6 16.25 -2.65 7.15 -6.25 16.85 -8 21.50 -4.95 13.35 -10 26.70 -11.50 30.25 -0.70 1.80 -2.30 5.85 -3.50 9 -2.25 6.05 -15.50 38.75 -22.05 54.50 -2.10 5.10 -5.10 12.40 -6.70 16.25 -1.60 3.85 -3.85 9.15 -5 11.75 -1.15 2.60 -4 9.50 -6.35 15.25 -2.35 5.80 -5.65 13.90 -7.40 18 -1.75 4.15 -5.35 12.80 -8 19.25 -2.65 6.45 -5.25 12.90 -5.80 14.25 -1.55 3.75 -12.60 31.10 -19.15 47.50 -3.20 8 -6 14.95 -6.25 15.50 -0.75 1.60 -8.05 19.80 -8.05 20 0 0.25 -16.25 41.10 -20.40 51.25 -19.95 48.80 -29.95 69.35 -37.25 76.55 -3.15 3.10 -4.50 4 -8.30 5.55 -4.15 1.75 -10.60 1.95 -13.80 0.45z m205.50 -518.15 l0.80 -2.05 -1.40 -1.40 c-3.10 -3.10 -18.40 -11.45 -25.40 -13.95 -3.90 -1.40 -13.80 -4.35 -15.25 -4.60 -1 -0.15 -1.30 0.30 -2.30 2.85 -1.55 4.10 -1.50 4.60 0.45 5 3.10 0.65 12.15 3.35 17.10 5.10 5.85 2.10 8.10 3.10 17.25 7.65 3.70 1.85 7 3.40 7.30 3.45 0.35 0 0.95 -0.90 1.45 -2.05z m8.45 -24.75 c0.40 -1.30 7.95 -28.05 9.70 -34.40 0.85 -3 2.25 -8.20 3.10 -11.50 0.90 -3.30 2.10 -7.80 2.75 -10 2.55 -8.90 5.35 -19.30 5.20 -19.45 -0.10 -0.10 -3.55 -1.25 -7.70 -2.55 -4.10 -1.35 -10.40 -3.85 -14 -5.65 -6.10 -3 -6.50 -3.15 -7.15 -2.25 -1.35 1.75 -33.55 67.15 -33.75 68.40 0 0.30 1.65 0.95 3.70 1.45 2.05 0.50 3.80 1.10 3.95 1.25 0.15 0.20 1.50 0.65 3 1 6.35 1.60 20.75 8.20 27.25 12.50 3.50 2.30 3.60 2.35 3.95 1.20z"/>
 </g>
 <g fill="#ffffff">
  <path d="M0 598.50 l0 -598.50 598.50 0 598.50 0 0 598.50 0 598.50 -598.50 0 -598.50 0 0 -598.50z m1045.75 567.50 c0.15 -0.30 2.40 -0.50 5 -0.50 2.60 0 4.85 -0.20 5 -0.50 0.15 -0.25 1.65 -0.50 3.30 -0.50 1.95 0 3.05 -0.20 3.25 -0.65 0.10 -0.35 1.05 -0.65 2.10 -0.70 1 -0.05 2.55 -0.45 3.35 -0.85 0.80 -0.40 1.95 -0.65 2.60 -0.50 0.80 0.20 1.25 0.05 1.45 -0.50 0.20 -0.45 0.90 -0.80 1.70 -0.80 0.80 0 1.60 -0.20 1.75 -0.50 0.15 -0.25 0.80 -0.50 1.40 -0.50 0.65 0 1.50 -0.45 2 -1 0.45 -0.55 1.30 -1 1.85 -1 1 0 1.45 -0.20 3.85 -1.40 0.65 -0.35 1.50 -0.60 1.90 -0.60 0.40 0 0.75 -0.15 0.75 -0.35 0 -0.25 1.25 -0.95 2.75 -1.60 1.50 -0.70 2.75 -1.40 2.75 -1.65 0 -0.20 0.30 -0.40 0.70 -0.40 0.40 0 1.10 -0.40 1.60 -0.85 0.90 -0.90 2 -1.60 4.20 -2.75 0.70 -0.35 1.60 -1.05 2.05 -1.50 0.45 -0.50 1.05 -0.90 1.35 -0.90 0.30 0 1.35 -0.65 2.25 -1.50 0.95 -0.80 1.85 -1.50 2.05 -1.50 0.15 0 2.30 -1.95 4.70 -4.30 2.40 -2.35 5.45 -5.30 6.75 -6.60 1.35 -1.30 3 -3.20 3.65 -4.25 0.70 -1.05 1.55 -2 1.95 -2.20 0.40 -0.15 0.75 -0.55 0.75 -0.85 0 -0.35 0.70 -1.25 1.50 -2.05 0.85 -0.80 1.50 -1.70 1.50 -2 0 -0.35 0.45 -1 1 -1.50 0.55 -0.50 1 -1.20 1 -1.60 0 -0.35 0.35 -0.80 0.75 -0.95 0.40 -0.15 1.05 -0.90 1.40 -1.60 2.10 -4.05 3 -5.65 3.40 -5.90 0.25 -0.15 0.45 -0.70 0.45 -1.25 0 -0.55 0.35 -1.10 0.75 -1.25 0.40 -0.20 0.75 -0.80 0.75 -1.45 0 -0.65 0.35 -1.25 0.75 -1.45 0.40 -0.15 0.75 -0.75 0.75 -1.30 0 -0.60 0.35 -1.40 0.75 -1.80 0.40 -0.45 0.75 -1.30 0.75 -1.90 0 -0.65 0.35 -1.45 0.75 -1.80 0.40 -0.35 0.75 -1.05 0.75 -1.60 0 -0.55 0.30 -1.30 0.70 -1.70 0.40 -0.35 0.60 -1.10 0.45 -1.60 -0.10 -0.50 0.15 -1.20 0.55 -1.55 0.45 -0.40 0.80 -1.30 0.80 -2 0 -0.75 0.35 -1.80 0.75 -2.35 0.40 -0.50 0.75 -1.90 0.75 -3.05 0 -1.20 0.25 -2.15 0.50 -2.15 0.30 0 0.50 -1 0.50 -2.25 0 -1.30 0.30 -2.90 0.70 -3.65 0.35 -0.75 0.80 -3.60 1 -6.35 0.45 -6.85 0.45 -808.40 0 -818.90 -0.15 -4.60 -0.50 -8.50 -0.75 -8.65 -0.25 -0.15 -0.45 -1.60 -0.45 -3.20 0 -1.60 -0.20 -3.10 -0.50 -3.25 -0.25 -0.15 -0.50 -1.05 -0.50 -2 0 -0.90 -0.35 -2 -0.75 -2.45 -0.40 -0.40 -0.75 -1.50 -0.75 -2.40 0 -0.90 -0.35 -2.10 -0.75 -2.60 -0.40 -0.50 -0.60 -1.10 -0.45 -1.35 0.10 -0.20 -0.25 -1.20 -0.80 -2.20 -0.55 -0.95 -1 -2.20 -1 -2.75 0 -0.50 -0.20 -1.10 -0.50 -1.25 -0.25 -0.15 -0.50 -0.85 -0.50 -1.50 0 -0.70 -0.45 -1.45 -1 -1.75 -0.75 -0.40 -0.95 -0.85 -0.75 -1.55 0.20 -0.60 0.05 -1.05 -0.45 -1.25 -0.45 -0.15 -0.80 -0.85 -0.80 -1.50 0 -0.65 -0.45 -1.40 -1 -1.70 -0.50 -0.30 -0.85 -0.85 -0.70 -1.20 0.15 -0.40 0.05 -0.85 -0.25 -1.05 -0.30 -0.15 -1 -1.25 -1.55 -2.45 -0.50 -1.15 -1.30 -2.45 -1.75 -2.80 -0.40 -0.35 -0.75 -1.05 -0.75 -1.55 0 -0.50 -0.45 -1.15 -1 -1.45 -0.55 -0.30 -1 -0.90 -1 -1.40 0 -0.45 -0.45 -1.15 -1 -1.50 -0.55 -0.35 -1 -0.90 -1 -1.25 0 -0.35 -0.65 -1.30 -1.50 -2.10 -0.80 -0.80 -1.50 -1.65 -1.50 -1.90 0 -0.50 -0.30 -0.85 -10.35 -11.20 -4.05 -4.20 -7.55 -7.65 -7.80 -7.65 -0.25 0 -1.65 -1 -3.05 -2.25 -1.45 -1.25 -2.80 -2.25 -2.95 -2.25 -0.15 0 -2.45 -1.45 -5.10 -3.25 -2.60 -1.80 -4.95 -3.25 -5.20 -3.25 -0.25 0 -0.70 -0.35 -1.05 -0.75 -0.35 -0.40 -1 -0.75 -1.50 -0.75 -0.50 0 -1 -0.35 -1.20 -0.75 -0.15 -0.40 -0.65 -0.75 -1.15 -0.75 -0.50 0 -1.35 -0.35 -1.85 -0.75 -0.55 -0.40 -1.40 -0.75 -1.90 -0.75 -0.50 0 -0.90 -0.20 -0.90 -0.50 0 -0.25 -0.55 -0.50 -1.20 -0.50 -0.65 0 -1.45 -0.35 -1.80 -0.75 -0.35 -0.40 -1.15 -0.75 -1.80 -0.75 -0.60 0 -1.30 -0.25 -1.45 -0.50 -0.15 -0.30 -0.95 -0.50 -1.70 -0.50 -0.80 0 -1.70 -0.35 -2.05 -0.75 -0.35 -0.40 -1.25 -0.75 -2 -0.75 -0.75 0 -2.20 -0.35 -3.15 -0.75 -1 -0.40 -2.50 -0.75 -3.30 -0.75 -0.80 0 -1.65 -0.25 -1.80 -0.50 -0.15 -0.30 -2.25 -0.50 -4.65 -0.50 -3 0 -4.80 -0.25 -5.85 -0.80 -1.30 -0.70 -4.25 -0.75 -22.25 -0.70 -11.40 0.05 -30.60 0.10 -42.60 0.05 l-21.85 -0.05 -0.15 -25.50 c-0.10 -19.50 -0.30 -25.60 -0.75 -26.10 -0.40 -0.35 -0.65 -1.95 -0.65 -4 0 -2.60 -0.20 -3.50 -0.75 -3.70 -0.50 -0.20 -0.75 -1 -0.75 -2.20 0 -1.05 -0.35 -2.15 -0.75 -2.50 -0.40 -0.35 -0.75 -1.30 -0.75 -2.10 0 -0.80 -0.30 -1.55 -0.75 -1.70 -0.40 -0.20 -0.75 -0.90 -0.75 -1.70 0 -0.75 -0.35 -1.65 -0.75 -2 -0.40 -0.35 -0.75 -1 -0.75 -1.50 0 -0.50 -0.35 -1.15 -0.75 -1.50 -0.40 -0.35 -0.75 -1 -0.75 -1.50 0 -0.45 -0.45 -1.25 -1 -1.75 -0.55 -0.50 -1 -1.20 -1 -1.60 0 -0.35 -0.45 -1.10 -1 -1.65 -0.55 -0.55 -1 -1.30 -1 -1.65 0 -0.40 -0.55 -1 -1.25 -1.35 -0.70 -0.35 -1.25 -1 -1.25 -1.45 -0.05 -2 -17 -17.55 -19.15 -17.55 -0.35 0 -0.90 -0.45 -1.25 -1 -0.35 -0.55 -1.05 -1 -1.60 -1 -0.55 0 -1 -0.20 -1 -0.50 0 -0.25 -0.60 -0.65 -1.35 -0.80 -0.75 -0.20 -1.70 -0.65 -2.05 -1.05 -0.35 -0.35 -1.05 -0.65 -1.50 -0.65 -0.45 0 -1.30 -0.35 -1.80 -0.75 -0.55 -0.40 -1.45 -0.75 -2 -0.75 -0.60 0 -1.50 -0.35 -2 -0.75 -0.55 -0.40 -1.70 -0.75 -2.60 -0.75 -0.90 0 -1.80 -0.20 -1.95 -0.50 -0.15 -0.25 -1.50 -0.50 -2.90 -0.50 -1.45 0 -3.70 -0.35 -5.05 -0.75 -3.35 -1 -15.05 -1 -16.80 0 -0.70 0.40 -2.60 0.75 -4.25 0.75 -1.80 0 -3.40 0.30 -3.95 0.75 -0.55 0.40 -1.65 0.75 -2.40 0.75 -0.80 0 -2 0.35 -2.70 0.80 -0.65 0.45 -1.35 0.70 -1.55 0.55 -0.15 -0.20 -0.90 -0.05 -1.60 0.35 -0.70 0.35 -2.20 1.05 -3.30 1.55 -1.10 0.45 -2.35 1.05 -2.75 1.30 -0.40 0.25 -1.30 0.75 -2 1.05 -0.70 0.35 -1.35 0.80 -1.50 0.95 -0.40 0.55 -5.55 3.95 -6 3.95 -0.20 0 -0.75 0.55 -1.20 1.25 -0.45 0.70 -1.10 1.25 -1.45 1.25 -0.90 0 -9.90 9.30 -11.55 11.90 -0.70 1.15 -1.55 2.10 -1.80 2.10 -0.25 0 -0.60 0.55 -0.80 1.25 -0.15 0.70 -0.75 1.50 -1.25 1.80 -0.55 0.25 -0.95 0.95 -0.95 1.50 0 0.55 -0.35 1.10 -0.75 1.25 -0.40 0.20 -0.75 0.80 -0.75 1.45 0 0.60 -0.35 1.40 -0.75 1.75 -0.40 0.35 -0.75 1.05 -0.75 1.55 0 0.45 -0.35 1.20 -0.75 1.65 -0.40 0.40 -0.75 1.20 -0.75 1.75 0 0.55 -0.35 1.30 -0.75 1.75 -0.40 0.40 -0.75 1.25 -0.75 1.90 0 0.65 -0.35 1.60 -0.75 2.10 -0.40 0.55 -0.75 1.70 -0.75 2.60 0 0.90 -0.30 1.70 -0.60 1.80 -1.15 0.40 -1.50 7.55 -1.70 33.50 l-0.20 25.90 -152.40 0.10 c-83.80 0.10 -182.30 0.10 -218.95 0 l-66.60 -0.10 -0.15 -25.25 c-0.10 -19.30 -0.30 -25.35 -0.75 -25.85 -0.40 -0.35 -0.65 -1.95 -0.65 -4 0 -1.95 -0.20 -3.40 -0.50 -3.40 -0.25 0 -0.50 -0.85 -0.50 -1.95 0 -1.10 -0.30 -2.20 -0.75 -2.55 -0.40 -0.35 -0.75 -1.25 -0.75 -2 0 -0.75 -0.35 -1.65 -0.75 -2 -0.40 -0.35 -0.75 -1.15 -0.75 -1.85 0 -0.65 -0.35 -1.30 -0.75 -1.45 -0.45 -0.20 -0.75 -0.95 -0.75 -1.75 0 -0.80 -0.20 -1.45 -0.50 -1.45 -0.25 0 -0.85 -0.75 -1.25 -1.65 -1.20 -2.50 -2 -3.80 -3.20 -5.05 -0.55 -0.60 -1.05 -1.35 -1.05 -1.60 0 -0.30 -0.55 -1.05 -1.25 -1.70 -0.70 -0.65 -1.25 -1.50 -1.25 -1.90 0 -0.40 -1.30 -2.10 -2.90 -3.80 -1.60 -1.65 -4 -4.25 -5.35 -5.65 -1.30 -1.45 -2.70 -2.65 -3.05 -2.65 -0.35 0 -0.95 -0.40 -1.30 -0.85 -0.80 -1.05 -3.65 -3.15 -4.35 -3.15 -0.25 0 -0.55 -0.35 -0.75 -0.75 -0.15 -0.40 -0.70 -0.75 -1.20 -0.75 -0.50 0 -1.35 -0.45 -1.85 -1 -0.50 -0.55 -1.20 -1 -1.50 -1 -0.35 0 -0.75 -0.35 -0.95 -0.75 -0.15 -0.40 -0.80 -0.75 -1.45 -0.75 -0.70 0 -1.50 -0.35 -1.85 -0.75 -0.35 -0.40 -1 -0.75 -1.45 -0.75 -0.45 0 -1.25 -0.35 -1.75 -0.75 -0.55 -0.40 -1.50 -0.75 -2.10 -0.75 -0.65 0 -1.25 -0.20 -1.40 -0.45 -0.20 -0.25 -1.25 -0.60 -2.45 -0.80 -1.15 -0.20 -2.30 -0.55 -2.60 -0.75 -0.25 -0.25 -1.95 -0.50 -3.75 -0.65 -1.80 -0.15 -4.35 -0.50 -5.75 -0.75 -3.85 -0.80 -13.10 -0.70 -15.95 0.15 -1.35 0.40 -3.30 0.75 -4.30 0.75 -1 0 -2.55 0.35 -3.40 0.80 -0.90 0.40 -2 0.65 -2.55 0.45 -0.50 -0.15 -1.15 0.05 -1.55 0.50 -0.35 0.40 -1.15 0.75 -1.80 0.75 -0.60 0 -1.30 0.25 -1.45 0.50 -0.15 0.30 -0.85 0.50 -1.45 0.50 -0.65 0 -1.45 0.35 -1.80 0.75 -0.35 0.40 -0.90 0.75 -1.25 0.75 -0.80 0 -3.65 1.50 -4.65 2.40 -0.35 0.30 -0.85 0.60 -1.10 0.60 -0.25 0 -1.50 0.75 -2.75 1.65 -1.30 0.85 -2.80 1.85 -3.40 2.20 -0.55 0.30 -1.20 0.95 -1.45 1.35 -0.25 0.45 -0.80 0.80 -1.25 0.80 -1 0 -10.40 9.75 -11.40 11.85 -0.45 0.90 -1.20 1.85 -1.70 2.15 -0.55 0.25 -1.20 1.15 -1.45 2 -0.30 0.80 -0.75 1.50 -1.05 1.50 -0.55 0 -3.05 4.70 -3.05 5.75 0 0.35 -0.35 0.75 -0.75 0.95 -0.40 0.15 -0.75 0.80 -0.75 1.45 0 0.70 -0.35 1.50 -0.75 1.85 -0.40 0.35 -0.75 1.05 -0.75 1.55 0 0.45 -0.35 1.20 -0.75 1.65 -0.40 0.40 -0.75 1.30 -0.75 1.95 0 0.70 -0.35 1.50 -0.75 1.85 -0.40 0.35 -0.75 1.45 -0.75 2.50 0 1.05 -0.35 2.15 -0.75 2.50 -0.50 0.40 -0.75 1.50 -0.75 3.25 0 1.45 -0.35 3.60 -0.75 4.75 -0.65 1.80 -0.75 6.10 -0.75 26.30 l0 24.20 -43.30 0 c-25 0 -43.15 0.20 -43 0.45 0.45 0.70 -1.60 1.05 -6.25 1.05 -3.25 0 -4.50 0.20 -4.95 0.75 -0.40 0.50 -1.50 0.75 -3.05 0.75 -1.30 0 -2.55 0.25 -2.70 0.50 -0.15 0.30 -1.05 0.50 -1.95 0.50 -0.95 0 -1.95 0.35 -2.30 0.75 -0.35 0.40 -1.25 0.75 -2 0.75 -0.75 0 -1.65 0.35 -2 0.75 -0.35 0.45 -0.95 0.70 -1.30 0.55 -0.30 -0.10 -1 0.10 -1.55 0.45 -0.50 0.40 -1.25 0.75 -1.70 0.75 -0.45 0 -1.10 0.35 -1.45 0.75 -0.35 0.40 -1.15 0.75 -1.85 0.75 -0.65 0 -1.30 0.35 -1.45 0.75 -0.20 0.40 -0.70 0.75 -1.20 0.75 -0.50 0 -1.15 0.35 -1.50 0.75 -0.35 0.40 -1 0.75 -1.50 0.75 -0.50 0 -1.15 0.35 -1.50 0.75 -0.35 0.40 -1 0.75 -1.50 0.75 -0.50 0 -1.15 0.35 -1.50 0.75 -0.35 0.40 -0.90 0.75 -1.25 0.75 -0.30 0 -1 0.45 -1.50 1 -0.50 0.55 -1.10 1 -1.35 1 -0.55 0 -6.65 4.35 -8.10 5.80 -0.55 0.60 -1.30 1.15 -1.65 1.25 -1.10 0.40 -14.65 13.65 -14.95 14.65 -0.15 0.60 -1 1.75 -1.90 2.65 -3.40 3.45 -4.20 4.45 -4.50 5.50 -0.20 0.55 -0.65 1.20 -1.05 1.35 -0.40 0.15 -0.75 0.70 -0.75 1.25 0 0.50 -0.35 1.05 -0.75 1.25 -0.40 0.15 -1 0.80 -1.25 1.40 -0.50 1.20 -0.75 1.60 -3.10 5.30 -0.80 1.20 -1.40 2.35 -1.40 2.55 0 0.25 -0.35 0.70 -0.75 1.05 -0.45 0.35 -0.70 0.95 -0.55 1.30 0.15 0.40 -0.20 0.95 -0.75 1.20 -0.70 0.40 -0.90 0.85 -0.70 1.55 0.20 0.60 0.05 1.05 -0.45 1.25 -0.45 0.15 -0.80 0.80 -0.80 1.45 0 0.60 -0.35 1.40 -0.75 1.75 -0.40 0.35 -0.75 1.15 -0.75 1.75 0 0.60 -0.35 1.40 -0.75 1.75 -0.40 0.35 -0.75 1.15 -0.75 1.80 0 0.60 -0.20 1.30 -0.50 1.45 -0.25 0.15 -0.50 1 -0.50 1.80 0 0.80 -0.30 1.60 -0.70 1.75 -0.40 0.15 -0.55 0.75 -0.40 1.45 0.10 0.70 -0.15 1.80 -0.60 2.50 -0.45 0.65 -0.80 2.10 -0.80 3.25 0 1.10 -0.20 2 -0.45 2 -0.55 0 -0.95 2.20 -1.65 9 -0.60 6.05 -0.80 818.95 -0.15 825.85 0.20 2.50 0.65 4.35 1.05 4.70 0.40 0.35 0.70 1.55 0.70 3 0 1.35 0.25 2.45 0.50 2.45 0.30 0 0.50 1.05 0.50 2.30 0 1.35 0.30 2.55 0.75 3 0.40 0.45 0.75 1.35 0.75 2.10 0 0.75 0.35 1.75 0.70 2.25 0.40 0.50 0.60 1.30 0.45 1.80 -0.10 0.45 0.15 1.15 0.55 1.50 0.45 0.40 0.80 1.20 0.80 1.80 0 0.60 0.35 1.40 0.75 1.75 0.40 0.35 0.75 1.05 0.75 1.55 0 0.45 0.35 1.20 0.75 1.65 0.40 0.40 0.75 1.05 0.75 1.45 0 0.40 0.35 1 0.75 1.35 0.40 0.35 0.75 1.05 0.75 1.55 0 0.50 0.20 1.05 0.50 1.20 0.25 0.15 1.05 1.50 1.75 2.90 1.50 3.05 1.90 3.70 4.40 7.45 1.05 1.55 2.20 3.10 2.60 3.40 0.40 0.35 0.75 0.85 0.75 1.10 0 0.70 5.20 6.90 8.55 10.30 4.20 4.20 11.95 11.30 12.65 11.60 0.70 0.30 3.35 2.25 5 3.75 0.60 0.55 1.65 1.30 2.30 1.65 2.20 1.15 3.50 1.90 4.35 2.65 0.50 0.45 1.95 1.30 3.30 2 1.30 0.65 2.35 1.35 2.35 1.55 0 0.25 0.45 0.40 0.95 0.40 0.55 0 1.15 0.25 1.30 0.50 0.15 0.30 0.75 0.50 1.30 0.50 0.50 0 0.95 0.25 0.95 0.50 0 0.30 0.55 0.50 1.20 0.50 0.65 0 1.45 0.35 1.80 0.75 0.35 0.40 1 0.75 1.50 0.75 0.50 0 1.15 0.35 1.50 0.75 0.35 0.45 0.95 0.70 1.30 0.55 0.30 -0.10 1 0.10 1.55 0.45 0.50 0.40 1.40 0.75 2 0.75 0.60 0 1.25 0.25 1.40 0.50 0.15 0.30 1.10 0.50 2.05 0.50 1 0 2.10 0.35 2.50 0.75 0.45 0.40 1.65 0.75 2.70 0.75 1.20 0 2 0.25 2.20 0.75 0.20 0.55 1.05 0.75 3.30 0.75 1.65 0 3 0.20 3 0.50 0 0.30 1.65 0.50 3.90 0.55 2.10 0 4.30 0.20 4.85 0.45 1.45 0.65 885.60 0.65 886 0z"/>
  <path d="M164.95 1120.30 c-0.15 -0.15 -2.35 -0.50 -4.95 -0.85 -2.60 -0.30 -4.95 -0.75 -5.20 -1 -0.30 -0.25 -1.20 -0.45 -2.10 -0.45 -0.85 0 -1.85 -0.35 -2.20 -0.75 -0.35 -0.40 -1.20 -0.75 -1.95 -0.75 -0.75 0 -1.60 -0.25 -1.85 -0.50 -0.30 -0.30 -1.05 -0.65 -1.75 -0.75 -0.65 -0.15 -1.25 -0.45 -1.35 -0.75 -0.10 -0.25 -0.60 -0.50 -1.10 -0.50 -0.45 0 -1.15 -0.35 -1.50 -0.75 -0.35 -0.40 -1 -0.75 -1.50 -0.75 -0.50 0 -1.15 -0.35 -1.50 -0.75 -0.35 -0.40 -0.90 -0.75 -1.20 -0.80 -0.30 0 -1.55 -0.80 -2.80 -1.75 -1.25 -0.90 -2.70 -1.90 -3.25 -2.15 -0.95 -0.45 -10.30 -9.90 -12.60 -12.80 -0.65 -0.80 -1.15 -1.70 -1.15 -2.10 0 -0.35 -0.20 -0.65 -0.50 -0.65 -0.25 0 -0.80 -0.80 -1.20 -1.75 -0.40 -0.95 -1 -1.75 -1.25 -1.75 -0.30 0 -0.55 -0.55 -0.55 -1.20 0 -0.65 -0.35 -1.35 -0.80 -1.50 -0.45 -0.15 -0.70 -0.60 -0.55 -1 0.15 -0.40 -0.15 -1.10 -0.70 -1.60 -0.50 -0.45 -0.95 -1.35 -0.95 -2 0 -0.65 -0.20 -1.30 -0.50 -1.45 -0.25 -0.15 -0.50 -0.85 -0.50 -1.50 0 -0.65 -0.35 -1.50 -0.75 -1.95 -0.40 -0.40 -0.75 -1.40 -0.75 -2.20 0 -0.80 -0.35 -1.75 -0.75 -2.10 -0.50 -0.40 -0.75 -1.55 -0.75 -3.45 0 -1.55 -0.25 -3.10 -0.50 -3.35 -0.55 -0.55 -0.35 -810.80 0.25 -817.30 0.20 -2.15 0.55 -3.90 0.80 -3.90 0.25 0 0.45 -0.85 0.45 -1.95 0 -1.10 0.30 -2.20 0.75 -2.55 0.40 -0.35 0.75 -1.25 0.75 -2 0 -0.75 0.35 -1.65 0.75 -2 0.40 -0.35 0.75 -1 0.75 -1.50 0 -0.50 0.35 -1.15 0.75 -1.50 0.45 -0.35 0.65 -1.05 0.50 -1.55 -0.20 -0.60 -0.05 -1.05 0.45 -1.25 0.45 -0.15 0.80 -0.80 0.80 -1.45 0 -0.65 0.35 -1.25 0.75 -1.45 0.40 -0.15 0.75 -0.65 0.75 -1.15 0 -0.50 0.45 -1.20 1 -1.55 0.55 -0.35 1 -0.85 1 -1.20 0 -0.30 0.90 -1.65 2 -2.95 1.10 -1.30 2 -2.60 2 -2.90 0 -0.30 1.70 -2.15 3.85 -4.15 2.10 -2 4.45 -4.25 5.25 -5.05 0.80 -0.75 1.75 -1.35 2.15 -1.35 0.40 0 0.75 -0.25 0.75 -0.50 0 -0.30 0.40 -0.70 0.90 -0.90 1.60 -0.70 4.60 -2.70 4.60 -3.10 0 -0.20 0.55 -0.55 1.25 -0.70 0.70 -0.20 1.25 -0.55 1.25 -0.80 0 -0.30 0.55 -0.50 1.20 -0.50 0.70 0 1.40 -0.20 1.55 -0.50 0.15 -0.25 0.85 -0.50 1.45 -0.50 0.65 0 1.45 -0.30 1.75 -0.70 0.35 -0.40 1 -0.60 1.50 -0.45 0.45 0.10 1.15 -0.15 1.50 -0.55 0.40 -0.45 1.40 -0.80 2.30 -0.80 0.90 0 1.90 -0.30 2.20 -0.70 1 -1.20 6.25 -1.40 49.15 -1.60 l41.35 -0.20 0.20 15.35 c0.20 15.70 0.85 22.55 2.15 23.30 0.40 0.25 0.70 1.20 0.70 2.35 0 1.05 0.20 2.10 0.50 2.25 0.25 0.15 0.50 0.95 0.50 1.70 0 0.80 0.35 1.70 0.75 2.05 0.40 0.35 0.75 1.15 0.75 1.75 0 0.60 0.35 1.40 0.75 1.75 0.40 0.35 0.75 1 0.75 1.50 0 0.50 0.35 1.15 0.75 1.50 0.40 0.35 0.75 0.90 0.75 1.25 0 0.35 0.45 1.20 1 1.90 0.55 0.70 1 1.55 1 1.95 0 0.35 1 1.75 2.25 3.10 1.25 1.35 2.25 2.75 2.25 3.10 0 0.80 10.95 12.20 11.70 12.20 0.25 0 1.05 0.55 1.75 1.20 2 1.80 6.05 4.50 8.45 5.55 1.15 0.50 2.10 1.10 2.10 1.35 0 0.20 0.40 0.40 0.90 0.40 0.50 0 1.35 0.35 1.90 0.75 0.50 0.40 1.35 0.75 1.85 0.75 0.50 0 1.25 0.35 1.65 0.75 0.45 0.40 1.30 0.75 1.95 0.75 0.65 0 1.35 0.20 1.50 0.50 0.15 0.25 1.05 0.50 1.90 0.50 0.90 0 2.05 0.30 2.60 0.70 2.90 2 32.35 1.90 34.40 -0.15 0.30 -0.30 1.40 -0.55 2.40 -0.55 1 0 2.10 -0.35 2.45 -0.75 0.35 -0.40 1.25 -0.75 2.05 -0.75 0.75 0 1.55 -0.20 1.70 -0.50 0.15 -0.30 0.85 -0.50 1.55 -0.50 0.70 0 1.35 -0.30 1.50 -0.70 0.15 -0.40 0.95 -0.90 1.75 -1.05 0.80 -0.20 1.55 -0.55 1.70 -0.80 0.20 -0.25 0.75 -0.45 1.30 -0.45 0.55 0 1.10 -0.35 1.25 -0.75 0.20 -0.40 0.60 -0.75 0.95 -0.75 0.35 0 1.55 -0.75 2.70 -1.65 4.05 -3.20 4.95 -3.85 5.45 -3.85 0.75 0 12.10 -11.90 12.10 -12.70 0 -0.45 0.45 -1 1 -1.30 0.55 -0.30 1 -0.80 1 -1.15 0 -0.35 0.45 -0.95 1 -1.35 0.55 -0.40 1 -1.05 1 -1.40 0 -0.40 0.45 -1.25 1 -1.95 0.55 -0.70 1 -1.70 1 -2.20 0 -0.55 0.25 -0.95 0.50 -0.95 0.30 0 0.50 -0.40 0.50 -0.85 0 -0.50 0.45 -1.65 1 -2.55 0.55 -0.90 1 -2.05 1 -2.55 0 -0.50 0.35 -1.05 0.75 -1.25 0.45 -0.15 0.75 -0.90 0.75 -1.80 0 -0.80 0.20 -1.50 0.45 -1.50 0.20 0 0.55 -0.95 0.70 -2.10 0.15 -1.20 0.55 -2.20 0.80 -2.30 0.30 -0.10 0.55 -1.60 0.55 -3.50 0.05 -1.95 0.35 -3.85 0.75 -4.60 0.55 -1 0.70 -4.15 0.75 -16.10 l0 -14.90 219 0 218.95 0 0.25 15.65 c0.20 16.50 0.65 22.90 1.70 23.25 0.35 0.10 0.60 1.05 0.60 2.10 0 1.05 0.30 2.15 0.75 2.50 0.40 0.35 0.75 1.10 0.75 1.70 0 0.55 0.70 2.40 1.50 4.05 0.80 1.65 1.50 3.30 1.50 3.65 0 0.35 0.35 0.75 0.75 0.90 0.40 0.20 0.75 0.70 0.75 1.20 0 0.50 0.35 1.15 0.75 1.50 0.40 0.35 0.75 0.90 0.75 1.25 0 0.40 0.55 1.35 1.25 2.15 0.70 0.85 1.25 1.70 1.25 1.95 0 0.20 0.45 0.70 1 1.05 0.55 0.35 1 1.05 1 1.60 0 1.45 13.35 14.50 14.85 14.50 0.25 0 1 0.55 1.65 1.25 0.65 0.70 1.40 1.25 1.65 1.25 0.30 0 1.25 0.55 2.15 1.25 0.90 0.70 1.95 1.25 2.35 1.25 0.40 0 1 0.35 1.35 0.75 0.35 0.40 0.90 0.75 1.25 0.75 0.35 0 0.90 0.35 1.25 0.75 0.35 0.40 1.15 0.75 1.75 0.75 0.60 0 1.40 0.35 1.75 0.75 0.35 0.40 1.15 0.75 1.80 0.75 0.60 0 1.30 0.25 1.45 0.50 0.15 0.30 0.90 0.50 1.60 0.50 0.70 0 1.95 0.30 2.80 0.70 2.25 1 7.25 1.45 16.85 1.40 9.20 0 16 -0.45 16.75 -1.15 0.25 -0.25 1.30 -0.45 2.30 -0.45 1 0 2.10 -0.35 2.45 -0.75 0.35 -0.40 1.25 -0.75 2 -0.75 0.75 0 1.65 -0.35 2 -0.75 0.35 -0.40 1.15 -0.75 1.75 -0.75 0.60 0 1.40 -0.35 1.75 -0.75 0.35 -0.40 1 -0.75 1.50 -0.75 0.50 0 1.15 -0.30 1.45 -0.70 0.35 -0.40 1.15 -0.85 1.80 -1 0.70 -0.20 1.25 -0.55 1.25 -0.80 0 -0.30 0.35 -0.50 0.80 -0.50 0.65 0 5.05 -3.15 7.25 -5.25 0.45 -0.40 0.95 -0.75 1.10 -0.75 0.90 0 11.35 -11.05 11.35 -11.95 0 -0.55 0.45 -1.25 1 -1.55 0.60 -0.30 1.25 -1.05 1.55 -1.65 0.75 -1.70 1.75 -3.35 2.40 -4 0.30 -0.30 0.55 -0.95 0.55 -1.45 0 -0.45 0.30 -1.05 0.70 -1.25 0.35 -0.20 1.40 -1.95 2.25 -3.90 0.90 -1.90 1.85 -3.90 2.10 -4.35 0.25 -0.50 0.45 -1.25 0.45 -1.70 0 -0.40 0.35 -1.15 0.80 -1.55 0.50 -0.55 0.70 -1.40 0.60 -2.45 -0.10 -1.05 0.05 -1.75 0.45 -1.90 0.45 -0.20 0.65 -1.35 0.65 -3.75 0 -2.15 0.20 -3.55 0.55 -3.65 0.45 -0.15 0.60 -4.55 0.65 -15.65 l0.05 -15.50 41.50 0 c31.90 0.05 42.45 0.20 45.50 0.70 2.20 0.35 4.20 0.85 4.50 1.10 0.25 0.25 0.95 0.45 1.55 0.45 0.60 0 1.85 0.40 2.80 0.85 3.10 1.55 3.40 1.65 4.40 1.65 0.55 0 1.15 0.35 1.30 0.75 0.20 0.40 0.75 0.75 1.30 0.75 0.55 0 1.30 0.35 1.70 0.75 0.45 0.40 1.20 0.75 1.75 0.75 0.50 0 0.95 0.25 0.95 0.55 0 0.25 0.70 0.75 1.50 1 0.85 0.30 1.50 0.75 1.50 1 0 0.25 0.25 0.45 0.55 0.45 0.30 0 1.25 0.50 2.05 1.10 2.30 1.70 11.40 10.50 11.40 11.05 0 0.25 1 1.75 2.25 3.35 1.25 1.60 2.25 3.15 2.25 3.40 0 0.25 0.45 0.85 1 1.35 0.55 0.50 1 1.30 1 1.75 0 0.50 0.35 1.15 0.75 1.50 0.40 0.35 0.75 1 0.75 1.50 0 0.50 0.35 1.15 0.75 1.50 0.40 0.35 0.75 1.15 0.75 1.75 0 0.60 0.35 1.40 0.75 1.75 0.40 0.35 0.75 1.25 0.75 2.05 0 0.75 0.35 1.70 0.75 2.15 0.40 0.40 0.75 1.50 0.75 2.50 0 0.95 0.20 1.85 0.45 2 0.20 0.15 0.60 2.05 0.80 4.15 0.55 4.95 0.55 815.30 0.05 819.65 -0.25 1.80 -0.60 3.45 -0.85 3.70 -0.25 0.30 -0.45 1.20 -0.45 2.10 0 0.85 -0.30 2.20 -0.70 2.95 -0.40 0.75 -0.60 1.70 -0.45 2.10 0.15 0.40 -0.20 1.15 -0.75 1.70 -0.60 0.50 -0.95 1.25 -0.80 1.60 0.15 0.40 -0.10 1 -0.55 1.35 -0.40 0.35 -0.75 1.05 -0.75 1.55 0 0.50 -0.35 1.10 -0.75 1.35 -0.45 0.20 -0.85 0.90 -1 1.50 -0.10 0.60 -0.55 1.45 -0.95 1.90 -0.45 0.40 -0.80 1.05 -0.80 1.45 0 0.35 -0.35 0.75 -0.75 0.95 -0.40 0.15 -0.75 0.55 -0.75 0.95 0 0.35 -0.55 1.20 -1.25 1.85 -0.70 0.65 -1.25 1.50 -1.25 1.90 0 0.90 -9.95 10.60 -10.85 10.60 -0.35 0 -1.05 0.45 -1.50 1 -0.50 0.55 -1.15 1 -1.45 1 -0.30 0 -0.85 0.30 -1.15 0.70 -0.35 0.40 -1.35 1.10 -2.30 1.55 -0.95 0.45 -1.75 1 -1.75 1.25 0 0.30 -0.55 0.50 -1.25 0.50 -0.70 0 -1.40 0.35 -1.55 0.75 -0.20 0.40 -0.80 0.75 -1.45 0.75 -0.65 0 -1.25 0.35 -1.45 0.75 -0.15 0.40 -0.80 0.75 -1.50 0.75 -0.70 0 -1.40 0.25 -1.55 0.50 -0.15 0.30 -0.95 0.50 -1.70 0.50 -0.80 0 -1.70 0.35 -2.05 0.75 -0.35 0.40 -1.45 0.75 -2.50 0.75 -1.05 0 -2.15 0.30 -2.45 0.70 -0.35 0.40 -1.80 0.70 -3.85 0.75 -1.85 0.05 -3.75 0.30 -4.25 0.55 -0.90 0.50 -878.05 0.75 -878.50 0.30z m286.60 -63.20 c3.80 -1.55 5.15 -2.45 8.30 -5.55 7.30 -7.20 17.30 -27.75 37.25 -76.55 4.15 -10.15 20.40 -51 20.40 -51.25 0 -0.20 7.30 -18.40 8.05 -20 0.25 -0.55 3.05 -7.50 6.25 -15.50 6.55 -16.40 17.60 -43.75 19.15 -47.50 0.55 -1.35 3.15 -7.80 5.80 -14.25 2.65 -6.45 6.25 -15.10 8 -19.25 1.75 -4.10 5.05 -12.20 7.40 -18 2.35 -5.75 5.20 -12.65 6.35 -15.25 1.15 -2.60 3.40 -7.90 5 -11.75 1.60 -3.85 4.60 -11.15 6.70 -16.25 6.55 -15.75 19.80 -48.45 22.05 -54.50 1.20 -3.15 2.80 -7.20 3.50 -9 1.50 -3.55 6.55 -16.90 11.50 -30.25 1.75 -4.65 5.35 -14.35 8 -21.50 2.70 -7.15 5.35 -14.45 6 -16.25 0.65 -1.80 1.90 -5.15 2.75 -7.50 2.55 -6.70 12.50 -36.95 13.25 -40.25 0.40 -1.65 0.75 -3.90 0.75 -5 0 -2 0.60 -3.20 3.20 -6.45 1.55 -2 4.60 -9.80 6.80 -17.55 0.75 -2.75 2.40 -8.25 3.65 -12.25 5 -16.05 9.80 -33.15 9.50 -33.65 -0.15 -0.25 0 -0.65 0.35 -0.85 0.35 -0.20 0.65 -1.05 0.70 -1.85 0.10 -0.80 0.25 -1.70 0.40 -1.95 0.20 -0.25 0.90 -2.70 1.65 -5.45 2.10 -7.65 3.65 -13.15 4.75 -17 0.55 -1.90 2 -7.30 3.30 -12 1.25 -4.65 2.85 -10.35 3.50 -12.65 l1.25 -4.10 3.85 -2 c15.15 -7.85 29.90 -25.15 37.75 -44.25 6.15 -15 9.25 -33.35 8.65 -51 -0.20 -4.65 -0.45 -9.15 -0.55 -10 -1.30 -8.60 -2.45 -14.80 -3.50 -18.75 -4.80 -18.30 -7.40 -25.70 -16.05 -45.25 -3.70 -8.35 -12.35 -24.30 -13.75 -25.35 -1.85 -1.40 -3.60 -1.50 -6.05 -0.45 -3.70 1.60 -3.90 2.05 -6.15 12.55 -1.70 7.65 -4 14.50 -7.45 21.75 -6.60 13.85 -14.35 23.55 -32.45 40.80 -18.20 17.35 -22.05 21.85 -28.10 33.15 -2.90 5.40 -6.05 14.95 -7.05 21.45 -1.20 7.50 -1.05 19.70 0.25 26.10 1.75 8.35 2.35 10.85 3.55 14 l1.10 3.05 -2.60 4.70 c-9.75 17.60 -32.60 64.90 -43 89 -7 16.20 -7.70 18.60 -6.60 21.55 0.55 1.40 0.30 2 -2.20 5.30 -1.60 2.10 -4.65 9.45 -9.90 23.90 -4.80 13.35 -9.80 26.85 -12.40 33.75 -2.75 7.40 -12.80 35.35 -16 44.50 -1.10 3.15 -2.55 7.20 -3.25 9 -3.80 9.60 -20.55 61.80 -28.80 89.75 -1 3.30 -3.35 11.30 -5.30 17.75 -4.85 16.25 -6.85 23.20 -8.85 30.50 -2.15 8.05 -5.25 19.10 -6.85 24.50 -1.60 5.35 -5.30 18.75 -7.55 27.25 -0.95 3.60 -2.75 10.35 -4.05 15 -5.10 18.45 -5.85 21.30 -7.95 29.25 -4.15 15.50 -7.30 27.25 -8.30 30.75 -1.60 5.60 -10 39 -11.25 44.75 -0.65 2.90 -1.75 7.50 -2.45 10.25 -1.20 4.80 -4.90 21.65 -5.75 26.25 -3.60 19.40 -4.30 23.75 -4.80 27.85 -0.15 1.15 -0.50 4.20 -0.80 6.75 -0.85 7.70 -0.95 16.25 -0.15 20.15 0.80 4.05 3.10 9 5.05 11 3.45 3.50 8.60 4.15 14.20 1.85z"/>
  <path d="M642.25 544.95 c-1.45 -0.95 -11.45 -5.90 -17.25 -8.55 -4.15 -1.90 -12.10 -4.65 -18.50 -6.40 -7.35 -2.05 -9.30 -2.75 -9.15 -3.30 0.05 -0.25 0.95 -2.65 1.95 -5.30 l1.80 -4.85 1.55 0.30 c2.25 0.40 14 3.85 17.60 5.15 6.95 2.45 21.15 10.25 25.70 14.05 l1.95 1.65 -0.90 2.55 c-1.10 3.15 -2.40 5.75 -2.90 5.70 -0.20 0 -1 -0.45 -1.85 -1z"/>
  <path d="M649 517.20 c-8.10 -5.20 -21.75 -11.55 -28.50 -13.25 -1.50 -0.35 -2.85 -0.80 -3 -1 -0.15 -0.15 -2.30 -0.85 -4.85 -1.45 l-4.55 -1.15 2.35 -4.80 c1.35 -2.65 2.80 -5.70 3.30 -6.80 1.75 -3.85 29.20 -59 30.20 -60.60 l1 -1.55 7.15 3.65 c6.35 3.25 20.70 8.70 23.50 8.90 0.50 0.05 0.90 0.10 0.90 0.20 0 0.05 -0.90 3.20 -1.95 7 -2.05 7.10 -2.70 9.40 -7.30 26.40 -7.40 27.30 -13.05 46.95 -13.55 47.05 -0.25 0.10 -2.35 -1.10 -4.70 -2.60z"/>
  <path d="M312 237.50 c0 -0.25 -0.80 -0.50 -1.75 -0.50 -0.95 0 -2.85 -0.65 -4.35 -1.45 -3.10 -1.70 -7.90 -6.30 -7.90 -7.60 0 -0.45 -0.35 -0.95 -0.75 -1.15 -0.40 -0.15 -0.75 -0.85 -0.75 -1.55 0 -0.70 -0.20 -1.25 -0.50 -1.25 -0.25 0 -0.50 -0.85 -0.50 -1.95 0 -1.05 -0.35 -2.75 -0.75 -3.80 -0.70 -1.60 -0.75 -8.25 -0.60 -58.40 0.15 -46.10 0.35 -57.15 0.90 -59.70 0.40 -1.70 0.85 -3.25 1.10 -3.45 0.20 -0.20 0.35 -0.85 0.35 -1.45 0 -0.65 0.30 -1.40 0.70 -1.70 0.40 -0.35 0.85 -1.15 1 -1.80 0.20 -0.70 0.55 -1.25 0.80 -1.25 0.30 0 0.50 -0.45 0.50 -1 0 -0.55 0.30 -1 0.70 -1 0.40 0 1.05 -0.40 1.40 -0.85 0.75 -1.05 3.65 -3.15 4.30 -3.15 0.25 0 0.75 -0.35 1.10 -0.75 0.35 -0.40 1.15 -0.75 1.80 -0.75 0.60 0 1.30 -0.25 1.45 -0.50 0.40 -0.65 8.60 -0.65 9 0 0.15 0.30 0.95 0.50 1.70 0.50 0.80 0 1.70 0.35 2.05 0.75 0.35 0.40 0.85 0.75 1.15 0.75 0.75 0 5.80 4.15 5.85 4.80 0 0.30 0.45 0.95 1 1.45 0.55 0.50 1 1.20 1 1.50 0 0.35 0.35 0.90 0.75 1.25 0.40 0.35 0.75 1.05 0.75 1.55 0 0.55 0.20 1.35 0.45 1.85 1.70 3.35 1.80 6.10 1.95 62.60 0.10 39.60 -0.05 56.40 -0.45 58 -0.30 1.25 -0.65 3.10 -0.80 4.15 -0.15 1 -0.45 2 -0.70 2.15 -0.25 0.15 -0.45 0.65 -0.45 1.15 0 0.50 -0.35 1.20 -0.75 1.55 -0.40 0.35 -0.75 0.95 -0.75 1.40 0 1.05 -6.35 7.10 -7.50 7.10 -0.50 0 -1 0.35 -1.20 0.75 -0.15 0.40 -0.90 0.75 -1.70 0.75 -0.75 0 -1.85 0.35 -2.40 0.75 -1.10 0.85 -7.20 1.05 -7.20 0.25z"/>
  <path d="M889 237.50 c-0.40 -0.25 -1.35 -0.50 -2.05 -0.50 -0.70 0 -1.70 -0.45 -2.20 -1 -0.50 -0.55 -1.10 -1 -1.30 -1 -1.20 0 -5.95 -4.90 -7.15 -7.45 -0.50 -1 -1.25 -2.40 -1.60 -3.15 -0.40 -0.70 -0.70 -1.85 -0.70 -2.55 0 -0.70 -0.25 -1.90 -0.55 -2.70 -0.75 -1.85 -0.70 -117.10 0.05 -117.85 0.30 -0.30 0.50 -1.30 0.50 -2.30 0 -1.65 0.60 -3.50 2.05 -6.10 0.25 -0.50 0.45 -1.20 0.45 -1.55 0 -0.35 1.10 -1.75 2.40 -3.10 3 -3.10 3.85 -3.75 4.85 -3.75 0.40 0 1.15 -0.45 1.60 -1 0.55 -0.60 1.20 -0.90 1.90 -0.70 0.65 0.15 1.35 -0.05 1.70 -0.50 0.85 -1.05 4.95 -1.05 7.40 -0.05 0.95 0.40 2.30 0.75 2.95 0.75 0.65 0 1.20 0.25 1.20 0.50 0 0.30 0.35 0.50 0.75 0.50 1.45 0 7.25 4.65 7.25 5.80 0 0.30 0.35 0.85 0.75 1.20 0.40 0.35 0.75 1.05 0.75 1.50 0 0.50 0.15 1 0.40 1.10 0.85 0.40 2.10 3.65 2.10 5.65 0 1.20 0.25 2.35 0.50 2.50 0.35 0.20 0.50 20.25 0.50 58.55 0 38.45 -0.15 58.20 -0.50 58.20 -0.25 0 -0.50 1.10 -0.50 2.45 0 1.55 -0.25 2.65 -0.75 3.05 -0.40 0.35 -0.75 1 -0.75 1.50 0 0.50 -0.35 1.15 -0.75 1.50 -0.40 0.35 -0.75 0.85 -0.75 1.15 0 1.20 -6.10 6.85 -7.45 6.85 -0.25 0 -0.70 0.35 -1.05 0.75 -0.35 0.40 -1.20 0.75 -1.95 0.75 -0.70 0 -1.75 0.35 -2.25 0.75 -1.15 0.85 -6.60 1 -7.80 0.25z"/>
 </g>
</svg>