<svg xmlns="http://www.w3.org/2000/svg" viewBox="0 0 1197 1197" width="1197" height="1197">
<rect x="80" y="168" width="1045" height="976" rx="70" ry="70" fill="white"/>
<g transform="translate(0.000000,1197.000000) scale(0.100000,-0.100000)"
fill="#000000" stroke="none">
<path d="M8867 11644 c-2 -2 -30 -9 -62 -14 -188 -31 -375 -167 -482 -351 -21
-37 -64 -162 -81 -239 -6 -26 -8 -146 -6 -288 l4 -242 -2192 2 -2193 3 -6 280
c-6 266 -9 303 -29 350 -5 11 -18 42 -29 69 -12 27 -37 71 -56 97 -19 27 -35
53 -35 57 0 14 -120 124 -173 161 -142 97 -316 131 -506 100 -154 -24 -348
-150 -431 -278 -8 -13 -19 -29 -25 -35 -23 -25 -98 -196 -90 -204 3 -3 -1 -12
-8 -20 -9 -11 -13 -92 -15 -298 l-4 -283 -441 -4 c-482 -4 -553 -10 -683 -62
-170 -67 -280 -141 -423 -286 -53 -53 -56 -57 -115 -141 -41 -59 -116 -197
-143 -263 -7 -17 -22 -70 -35 -120 l-23 -90 0 -4150 c0 -3129 3 -4160 12
-4190 6 -22 20 -71 32 -110 44 -155 153 -329 285 -458 196 -192 421 -301 676
-327 99 -10 8324 -10 8685 0 296 8 371 18 490 65 197 79 339 184 480 355 61
75 137 200 155 256 7 22 16 44 20 49 5 6 14 30 21 55 7 25 14 50 16 55 28 89
28 155 28 4245 0 4197 0 4241 -34 4284 -5 6 -11 25 -15 41 -34 144 -171 362
-313 496 -64 60 -199 156 -269 192 -55 28 -137 57 -224 79 -80 21 -112 22
-541 26 l-457 3 -3 284 c-3 210 -7 287 -16 297 -7 6 -13 21 -13 33 -1 11 -9
38 -20 60 -11 22 -19 44 -20 48 0 18 -101 155 -148 202 -74 75 -110 102 -182
136 -36 17 -72 35 -81 39 -26 14 -272 43 -282 34z m-5658 -504 c42 -12 95 -61
124 -115 22 -40 22 -47 25 -629 3 -654 3 -660 -62 -734 -34 -38 -97 -71 -136
-72 -79 0 -156 51 -193 129 -22 46 -22 50 -22 656 l0 610 22 42 c56 103 140
143 242 113z m5814 -15 c47 -22 83 -74 97 -140 7 -33 10 -250 8 -645 -3 -582
-3 -596 -24 -635 -12 -22 -43 -56 -70 -75 -43 -31 -55 -35 -110 -35 -54 0 -67
4 -101 31 -21 17 -49 51 -63 75 l-25 44 0 625 0 625 25 48 c50 99 158 132 263
82z m-6572 -1270 c6 -178 13 -240 30 -251 5 -3 9 -13 9 -23 0 -24 50 -120 95
-181 59 -81 169 -174 252 -215 78 -37 237 -75 318 -75 72 0 233 39 297 71 136
68 263 192 321 312 64 132 69 157 76 357 l6 185 2190 0 2190 0 1 -145 c1 -181
15 -263 65 -365 80 -165 176 -264 334 -344 110 -56 279 -84 379 -63 28 6 76
17 106 23 132 28 290 142 378 274 46 68 102 182 102 205 0 9 5 21 12 28 8 8
13 75 16 202 l5 190 416 -3 c463 -4 481 -6 608 -69 95 -47 176 -116 237 -201
43 -61 57 -89 99 -197 l22 -55 2 -4073 c2 -2807 0 -4090 -7 -4130 -18 -98 -20
-104 -53 -172 -60 -123 -139 -212 -242 -272 -96 -56 -121 -66 -223 -87 -97
-21 -117 -21 -4482 -18 -4049 3 -4390 4 -4453 20 -114 27 -211 82 -304 172
-46 43 -83 85 -83 91 0 7 -3 14 -8 16 -20 9 -82 153 -100 233 -7 30 -10 8128
-3 8195 2 19 7 40 11 45 4 6 11 25 15 43 8 38 62 144 104 206 64 92 197 187
306 216 44 12 91 25 105 30 14 4 210 7 435 6 l410 -1 6 -180z"/>
<path d="M7577 9286 c-59 -29 -72 -46 -93 -116 -71 -248 -138 -414 -238 -588
-178 -311 -379 -520 -891 -927 -309 -247 -456 -397 -582 -600 -149 -240 -235
-537 -237 -820 -1 -202 15 -360 54 -503 l22 -83 -65 -97 c-81 -121 -397 -629
-397 -638 0 -4 -11 -22 -25 -40 -14 -18 -25 -35 -25 -37 0 -5 -98 -174 -202
-347 -172 -287 -411 -718 -575 -1039 l-75 -146 7 -65 7 -66 -49 -52 c-37 -39
-70 -96 -135 -229 -98 -201 -378 -799 -378 -808 0 -2 -36 -80 -80 -171 -44
-92 -80 -168 -80 -170 0 -2 -22 -50 -48 -106 -104 -221 -155 -339 -149 -344 4
-4 19 -2 34 4 25 10 259 83 418 132 122 37 331 102 375 117 25 8 84 21 133 29
48 8 128 21 177 29 50 8 129 21 178 29 203 34 461 77 512 86 30 6 84 15 120
21 262 41 417 68 434 75 22 8 40 46 119 244 58 145 73 192 93 299 3 13 26 45
52 71 46 47 68 84 132 225 30 66 85 206 97 250 3 11 9 25 13 30 9 11 93 221
171 425 28 74 62 164 76 200 59 153 83 224 83 242 0 10 4 18 10 18 5 0 12 17
16 38 4 20 11 42 16 48 5 7 28 65 52 130 24 66 72 193 106 284 33 91 86 235
116 320 135 379 121 353 206 386 199 76 496 307 681 531 76 92 198 285 256
405 168 348 254 698 269 1093 11 268 -11 545 -57 750 -5 22 -15 67 -21 100
-11 59 -61 272 -81 350 -47 181 -159 491 -298 823 -69 166 -81 186 -124 212
-42 26 -71 25 -130 -4z m-1634 -4024 c141 -95 389 -223 523 -268 104 -35 98
-20 53 -131 -22 -53 -60 -154 -85 -223 -25 -69 -53 -147 -64 -175 -10 -27 -42
-115 -70 -195 -29 -80 -65 -179 -80 -220 -16 -41 -54 -145 -85 -230 -31 -85
-81 -218 -110 -295 -29 -77 -66 -173 -81 -212 -15 -40 -32 -73 -36 -73 -5 0
-53 33 -107 74 -176 133 -407 265 -589 337 -42 16 -90 36 -107 43 -28 12 -112
43 -143 52 -10 3 -5 20 19 61 34 61 41 74 330 555 101 169 199 334 218 365 53
90 291 473 323 521 16 23 34 42 39 42 6 0 29 -13 52 -28z m-1053 -1892 c111
-34 345 -142 455 -208 159 -97 383 -264 398 -297 7 -15 -75 -175 -89 -175 -6
0 -22 8 -35 19 -47 37 -336 205 -449 261 -120 60 -316 141 -432 179 -37 13
-70 27 -73 31 -6 9 76 192 96 216 7 9 22 8 57 -3 26 -8 58 -18 72 -23z"/>
</g>
</svg>
